<svg xmlns="http://www.w3.org/2000/svg" xmlns:xlink="http://www.w3.org/1999/xlink" width="152" zoomAndPan="magnify" viewBox="0 0 114 42" height="56" preserveAspectRatio="xMidYMid meet" version="1.0"><defs><g/><clipPath id="855b79d7b7"><path d="M 5 7 L 47 7 L 47 25 L 5 25 Z M 5 7 " clip-rule="nonzero"/></clipPath><clipPath id="b15793bf28"><path d="M 4.371094 12.53125 L 45.023438 7.046875 L 46.589844 18.664062 L 5.9375 24.148438 Z M 4.371094 12.53125 " clip-rule="nonzero"/></clipPath><clipPath id="34caf6fdb1"><path d="M 4.371094 12.53125 L 45.023438 7.046875 L 46.589844 18.664062 L 5.9375 24.148438 Z M 4.371094 12.53125 " clip-rule="nonzero"/></clipPath><clipPath id="646add8043"><path d="M 5.59375 20.117188 L 46.753906 20.117188 L 46.753906 30.925781 L 5.59375 30.925781 Z M 5.59375 20.117188 " clip-rule="nonzero"/></clipPath><clipPath id="0be0bfa064"><path d="M 6.203125 28.882812 C 19.71875 24.523438 21.671875 24.523438 23.476562 24.675781 C 25.054688 24.75 26.105469 25.726562 27.605469 25.5 C 29.632812 25.199219 32.261719 22.648438 34.367188 21.820312 C 36.019531 21.21875 37.296875 20.996094 39.023438 20.769531 C 41.050781 20.46875 44.730469 19.792969 45.855469 20.320312 C 46.382812 20.542969 46.683594 21.070312 46.683594 21.445312 C 46.757812 21.746094 46.457031 22.195312 46.234375 22.421875 C 45.933594 22.570312 45.40625 22.648438 45.105469 22.496094 C 44.804688 22.347656 44.355469 21.671875 44.429688 21.371094 C 44.503906 20.917969 45.707031 20.320312 46.082031 20.394531 C 46.382812 20.46875 46.683594 20.996094 46.683594 21.296875 C 46.683594 21.671875 46.53125 22.195312 46.007812 22.496094 C 44.65625 23.398438 39.246094 22.796875 36.242188 23.699219 C 33.238281 24.601562 30.308594 27.605469 27.832031 27.90625 C 25.878906 28.128906 24.226562 26.851562 22.574219 26.777344 C 20.921875 26.628906 19.644531 26.628906 17.769531 27.003906 C 14.839844 27.605469 8.605469 31.132812 6.800781 30.910156 C 6.203125 30.832031 5.675781 30.535156 5.601562 30.15625 C 5.527344 29.78125 6.203125 28.882812 6.203125 28.882812 " clip-rule="nonzero"/></clipPath></defs><g clip-path="url(#855b79d7b7)"><g clip-path="url(#b15793bf28)"><g clip-path="url(#34caf6fdb1)"><path fill="#ffffff" d="M 15.992188 14.816406 C 13.296875 14.5 8.328125 20.324219 7.664062 17.039062 C 7.609375 16.757812 7.828125 16.488281 8.09375 16.394531 C 8.878906 16.714844 9.742188 16.527344 10.671875 16.085938 C 9.867188 16.582031 8.953125 16.902344 8.304688 16.734375 C 9.175781 17.386719 10.59375 16.492188 11.96875 15.378906 C 13.503906 14.429688 15.191406 13.15625 16.992188 12.519531 C 19.464844 11.632812 22.117188 12.980469 25.167969 12.824219 C 26.828125 12.671875 28.480469 12.394531 30.09375 11.976562 C 28.816406 12.636719 27.476562 13.1875 26.09375 13.621094 C 29.023438 12.953125 31.269531 12.007812 32.824219 10.769531 C 35.078125 9.1875 36.332031 8.222656 38.835938 8.105469 C 39.65625 8.070312 40.699219 8.167969 41.523438 8.230469 L 41.621094 7.695312 C 42.101562 7.714844 42.519531 8.054688 42.625 8.523438 C 43.472656 8.535156 44.125 8.921875 44.578125 9.71875 C 44.421875 10.085938 44.582031 10.46875 45.058594 10.875 C 45.671875 11.414062 45.753906 11.765625 45.289062 11.929688 C 45.316406 12.058594 45.269531 12.195312 45.171875 12.28125 C 44.125 13.238281 42.464844 11.875 40.855469 12.261719 L 40.402344 12.859375 C 40.21875 13.28125 39.964844 13.652344 39.652344 13.964844 C 38.691406 13.871094 37.75 13.671875 36.84375 13.339844 C 37.707031 13.90625 38.699219 14.234375 39.714844 14.320312 C 40.410156 14.464844 41.261719 14.53125 42.269531 14.503906 C 43.308594 14.574219 44.074219 14.828125 44.585938 15.261719 C 45.480469 15.78125 46.082031 16.6875 46.21875 17.707031 C 46.160156 18.265625 45.691406 18.699219 45.132812 18.710938 C 44.574219 18.71875 44.089844 18.308594 44.015625 17.75 C 44.363281 16.285156 42.609375 15.988281 38.742188 16.863281 C 38.496094 16.921875 38.027344 17.238281 36.621094 16.878906 C 34.855469 18.210938 32.679688 18.800781 30.402344 19.191406 C 29.28125 19.382812 28.3125 18.960938 27.214844 18.582031 C 24.214844 17.28125 21.28125 18.4375 18.839844 20.164062 C 17.53125 21.089844 16.777344 20.707031 15.136719 20.863281 C 15.03125 20.867188 14.925781 20.882812 14.820312 20.898438 C 11.296875 21.273438 11.308594 22.023438 9.035156 22.773438 C 8.136719 23.066406 7.46875 24.015625 7.339844 24.054688 C 6.511719 24.324219 6.269531 23.863281 6.070312 23.542969 C 5.800781 23.128906 6.058594 22.113281 6.765625 21.671875 C 6.96875 21.542969 8.226562 20.929688 8.507812 20.859375 C 9.046875 20.71875 9.839844 20.433594 10.867188 19.980469 C 9.707031 20.597656 8.695312 21.148438 7.941406 21.5625 C 10.945312 20.25 13.488281 19.035156 14.636719 18.074219 C 15.519531 17.359375 15.9375 16.488281 15.871094 15.453125 C 15.875 15.277344 15.902344 15.109375 15.9375 14.957031 C 15.964844 14.90625 15.980469 14.859375 15.992188 14.816406 Z M 15.992188 14.816406 " fill-opacity="1" fill-rule="evenodd"/></g></g></g><g fill="#ffffff" fill-opacity="1"><g transform="translate(51.13007, 19.110916)"><g><path d="M 4.453125 0.140625 C 3.742188 0.140625 3.117188 0.00390625 2.578125 -0.265625 C 2.035156 -0.535156 1.613281 -0.9375 1.3125 -1.46875 C 1.007812 -2.007812 0.859375 -2.664062 0.859375 -3.4375 C 0.859375 -3.875 0.910156 -4.347656 1.015625 -4.859375 C 1.234375 -5.867188 1.585938 -6.71875 2.078125 -7.40625 C 2.578125 -8.09375 3.1875 -8.609375 3.90625 -8.953125 C 4.632812 -9.304688 5.457031 -9.484375 6.375 -9.484375 C 7.238281 -9.484375 7.941406 -9.300781 8.484375 -8.9375 C 9.035156 -8.570312 9.394531 -8.039062 9.5625 -7.34375 L 8.109375 -6.5625 L 7.953125 -6.578125 C 7.816406 -7.023438 7.59375 -7.351562 7.28125 -7.5625 C 6.976562 -7.78125 6.5625 -7.890625 6.03125 -7.890625 C 5.257812 -7.890625 4.597656 -7.632812 4.046875 -7.125 C 3.503906 -6.625 3.125 -5.832031 2.90625 -4.75 C 2.800781 -4.269531 2.75 -3.847656 2.75 -3.484375 C 2.75 -2.785156 2.914062 -2.273438 3.25 -1.953125 C 3.59375 -1.628906 4.066406 -1.46875 4.671875 -1.46875 C 5.179688 -1.46875 5.640625 -1.609375 6.046875 -1.890625 C 6.460938 -2.179688 6.832031 -2.628906 7.15625 -3.234375 L 7.328125 -3.234375 L 8.65625 -2.53125 C 8.375 -1.894531 8.039062 -1.378906 7.65625 -0.984375 C 7.28125 -0.597656 6.832031 -0.3125 6.3125 -0.125 C 5.789062 0.0507812 5.171875 0.140625 4.453125 0.140625 Z M 4.453125 0.140625 "/></g></g></g><g fill="#ffffff" fill-opacity="1"><g transform="translate(60.298014, 19.110916)"><g><path d="M 0.265625 0 L 2.359375 -9.890625 L 4.140625 -9.890625 L 3.34375 -6.125 L 3.46875 -6.109375 C 4.03125 -6.828125 4.785156 -7.1875 5.734375 -7.1875 C 6.335938 -7.1875 6.804688 -7.007812 7.140625 -6.65625 C 7.472656 -6.3125 7.640625 -5.835938 7.640625 -5.234375 C 7.640625 -4.984375 7.609375 -4.707031 7.546875 -4.40625 L 6.609375 0 L 4.828125 0 L 5.75 -4.3125 C 5.78125 -4.488281 5.796875 -4.632812 5.796875 -4.75 C 5.796875 -5.0625 5.707031 -5.296875 5.53125 -5.453125 C 5.363281 -5.609375 5.113281 -5.6875 4.78125 -5.6875 C 4.289062 -5.6875 3.875 -5.523438 3.53125 -5.203125 C 3.195312 -4.878906 2.957031 -4.363281 2.8125 -3.65625 L 2.046875 0 Z M 0.265625 0 "/></g></g></g><g fill="#ffffff" fill-opacity="1"><g transform="translate(68.564514, 19.110916)"><g><path d="M 7.171875 -4.921875 C 7.015625 -4.140625 6.585938 -3.578125 5.890625 -3.234375 C 5.203125 -2.890625 4.359375 -2.71875 3.359375 -2.71875 C 3.003906 -2.71875 2.675781 -2.734375 2.375 -2.765625 C 2.394531 -2.296875 2.519531 -1.945312 2.75 -1.71875 C 2.976562 -1.488281 3.300781 -1.375 3.71875 -1.375 C 4.101562 -1.375 4.421875 -1.445312 4.671875 -1.59375 C 4.929688 -1.75 5.171875 -1.984375 5.390625 -2.296875 L 5.53125 -2.296875 L 6.65625 -1.53125 C 6.4375 -1.175781 6.191406 -0.878906 5.921875 -0.640625 C 5.660156 -0.398438 5.320312 -0.207031 4.90625 -0.0625 C 4.5 0.0703125 4 0.140625 3.40625 0.140625 C 2.863281 0.140625 2.378906 0.0234375 1.953125 -0.203125 C 1.523438 -0.441406 1.191406 -0.78125 0.953125 -1.21875 C 0.710938 -1.664062 0.59375 -2.195312 0.59375 -2.8125 C 0.59375 -3.15625 0.632812 -3.519531 0.71875 -3.90625 C 0.863281 -4.59375 1.128906 -5.179688 1.515625 -5.671875 C 1.910156 -6.160156 2.382812 -6.535156 2.9375 -6.796875 C 3.488281 -7.054688 4.078125 -7.1875 4.703125 -7.1875 C 5.242188 -7.1875 5.703125 -7.101562 6.078125 -6.9375 C 6.453125 -6.769531 6.734375 -6.546875 6.921875 -6.265625 C 7.117188 -5.984375 7.21875 -5.671875 7.21875 -5.328125 C 7.21875 -5.179688 7.203125 -5.046875 7.171875 -4.921875 Z M 4.546875 -5.8125 C 4.265625 -5.8125 3.992188 -5.75 3.734375 -5.625 C 3.484375 -5.5 3.253906 -5.3125 3.046875 -5.0625 C 2.835938 -4.8125 2.675781 -4.503906 2.5625 -4.140625 C 2.894531 -4.109375 3.207031 -4.09375 3.5 -4.09375 C 4.070312 -4.09375 4.53125 -4.164062 4.875 -4.3125 C 5.21875 -4.457031 5.429688 -4.710938 5.515625 -5.078125 C 5.523438 -5.128906 5.53125 -5.171875 5.53125 -5.203125 C 5.53125 -5.378906 5.441406 -5.523438 5.265625 -5.640625 C 5.097656 -5.753906 4.859375 -5.8125 4.546875 -5.8125 Z M 4.546875 -5.8125 "/></g></g></g><g fill="#ffffff" fill-opacity="1"><g transform="translate(76.230047, 19.110916)"><g><path d="M 7.171875 -4.921875 C 7.015625 -4.140625 6.585938 -3.578125 5.890625 -3.234375 C 5.203125 -2.890625 4.359375 -2.71875 3.359375 -2.71875 C 3.003906 -2.71875 2.675781 -2.734375 2.375 -2.765625 C 2.394531 -2.296875 2.519531 -1.945312 2.75 -1.71875 C 2.976562 -1.488281 3.300781 -1.375 3.71875 -1.375 C 4.101562 -1.375 4.421875 -1.445312 4.671875 -1.59375 C 4.929688 -1.75 5.171875 -1.984375 5.390625 -2.296875 L 5.53125 -2.296875 L 6.65625 -1.53125 C 6.4375 -1.175781 6.191406 -0.878906 5.921875 -0.640625 C 5.660156 -0.398438 5.320312 -0.207031 4.90625 -0.0625 C 4.5 0.0703125 4 0.140625 3.40625 0.140625 C 2.863281 0.140625 2.378906 0.0234375 1.953125 -0.203125 C 1.523438 -0.441406 1.191406 -0.78125 0.953125 -1.21875 C 0.710938 -1.664062 0.59375 -2.195312 0.59375 -2.8125 C 0.59375 -3.15625 0.632812 -3.519531 0.71875 -3.90625 C 0.863281 -4.59375 1.128906 -5.179688 1.515625 -5.671875 C 1.910156 -6.160156 2.382812 -6.535156 2.9375 -6.796875 C 3.488281 -7.054688 4.078125 -7.1875 4.703125 -7.1875 C 5.242188 -7.1875 5.703125 -7.101562 6.078125 -6.9375 C 6.453125 -6.769531 6.734375 -6.546875 6.921875 -6.265625 C 7.117188 -5.984375 7.21875 -5.671875 7.21875 -5.328125 C 7.21875 -5.179688 7.203125 -5.046875 7.171875 -4.921875 Z M 4.546875 -5.8125 C 4.265625 -5.8125 3.992188 -5.75 3.734375 -5.625 C 3.484375 -5.5 3.253906 -5.3125 3.046875 -5.0625 C 2.835938 -4.8125 2.675781 -4.503906 2.5625 -4.140625 C 2.894531 -4.109375 3.207031 -4.09375 3.5 -4.09375 C 4.070312 -4.09375 4.53125 -4.164062 4.875 -4.3125 C 5.21875 -4.457031 5.429688 -4.710938 5.515625 -5.078125 C 5.523438 -5.128906 5.53125 -5.171875 5.53125 -5.203125 C 5.53125 -5.378906 5.441406 -5.523438 5.265625 -5.640625 C 5.097656 -5.753906 4.859375 -5.8125 4.546875 -5.8125 Z M 4.546875 -5.8125 "/></g></g></g><g fill="#ffffff" fill-opacity="1"><g transform="translate(83.89558, 19.110916)"><g><path d="M 3.515625 -5.65625 L 2.828125 -2.421875 C 2.796875 -2.304688 2.78125 -2.195312 2.78125 -2.09375 C 2.78125 -1.875 2.835938 -1.707031 2.953125 -1.59375 C 3.078125 -1.476562 3.25 -1.421875 3.46875 -1.421875 C 3.625 -1.421875 3.765625 -1.441406 3.890625 -1.484375 C 4.023438 -1.523438 4.160156 -1.59375 4.296875 -1.6875 L 4.4375 -1.6875 L 4.671875 -0.375 C 4.453125 -0.207031 4.210938 -0.0820312 3.953125 0 C 3.691406 0.09375 3.359375 0.140625 2.953125 0.140625 C 2.554688 0.140625 2.210938 0.0703125 1.921875 -0.0625 C 1.628906 -0.207031 1.398438 -0.421875 1.234375 -0.703125 C 1.066406 -0.984375 0.984375 -1.328125 0.984375 -1.734375 C 0.984375 -1.972656 1.007812 -2.226562 1.0625 -2.5 L 1.734375 -5.65625 L 0.671875 -5.65625 L 0.96875 -7.0625 L 2.046875 -7.0625 L 2.328125 -8.4375 L 4.15625 -8.71875 L 3.8125 -7.0625 L 5.8125 -7.0625 L 5.515625 -5.65625 Z M 3.515625 -5.65625 "/></g></g></g><g fill="#ffffff" fill-opacity="1"><g transform="translate(89.374616, 19.110916)"><g><path d="M 2.8125 0.140625 C 2.394531 0.140625 2.015625 0.046875 1.671875 -0.140625 C 1.328125 -0.335938 1.050781 -0.632812 0.84375 -1.03125 C 0.632812 -1.425781 0.53125 -1.914062 0.53125 -2.5 C 0.53125 -2.875 0.578125 -3.28125 0.671875 -3.71875 C 0.910156 -4.851562 1.335938 -5.710938 1.953125 -6.296875 C 2.578125 -6.890625 3.347656 -7.1875 4.265625 -7.1875 C 4.703125 -7.1875 5.078125 -7.109375 5.390625 -6.953125 C 5.710938 -6.796875 5.953125 -6.5625 6.109375 -6.25 L 6.25 -6.28125 L 6.40625 -7.0625 L 8.1875 -7.0625 L 6.6875 0 L 4.921875 0 L 5.109375 -0.921875 L 4.984375 -0.9375 C 4.710938 -0.59375 4.398438 -0.328125 4.046875 -0.140625 C 3.691406 0.046875 3.28125 0.140625 2.8125 0.140625 Z M 3.59375 -1.375 C 4.09375 -1.375 4.523438 -1.539062 4.890625 -1.875 C 5.253906 -2.21875 5.507812 -2.722656 5.65625 -3.390625 C 5.71875 -3.710938 5.75 -3.988281 5.75 -4.21875 C 5.75 -4.707031 5.632812 -5.070312 5.40625 -5.3125 C 5.1875 -5.5625 4.890625 -5.6875 4.515625 -5.6875 C 3.992188 -5.6875 3.5625 -5.515625 3.21875 -5.171875 C 2.875 -4.835938 2.625 -4.320312 2.46875 -3.625 C 2.40625 -3.3125 2.375 -3.03125 2.375 -2.78125 C 2.375 -2.320312 2.476562 -1.972656 2.6875 -1.734375 C 2.90625 -1.492188 3.207031 -1.375 3.59375 -1.375 Z M 3.59375 -1.375 "/></g></g></g><g fill="#ffffff" fill-opacity="1"><g transform="translate(97.826514, 19.110916)"><g><path d="M 0.265625 0 L 2.359375 -9.890625 L 4.140625 -9.890625 L 3.34375 -6.125 L 3.46875 -6.109375 C 4.03125 -6.828125 4.785156 -7.1875 5.734375 -7.1875 C 6.335938 -7.1875 6.804688 -7.007812 7.140625 -6.65625 C 7.472656 -6.3125 7.640625 -5.835938 7.640625 -5.234375 C 7.640625 -4.984375 7.609375 -4.707031 7.546875 -4.40625 L 6.609375 0 L 4.828125 0 L 5.75 -4.3125 C 5.78125 -4.488281 5.796875 -4.632812 5.796875 -4.75 C 5.796875 -5.0625 5.707031 -5.296875 5.53125 -5.453125 C 5.363281 -5.609375 5.113281 -5.6875 4.78125 -5.6875 C 4.289062 -5.6875 3.875 -5.523438 3.53125 -5.203125 C 3.195312 -4.878906 2.957031 -4.363281 2.8125 -3.65625 L 2.046875 0 Z M 0.265625 0 "/></g></g></g><g fill="#ffffff" fill-opacity="1"><g transform="translate(77.346313, 29.320055)"><g><path d="M 1.5625 0 L 0.6875 0 L 0.625 -3.90625 L 1.375 -3.90625 L 1.375 -1.15625 L 1.453125 -1.15625 L 2.734375 -3.90625 L 3.390625 -3.90625 L 3.53125 -1.15625 L 3.609375 -1.15625 L 4.765625 -3.90625 L 5.515625 -3.90625 L 3.8125 0 L 2.953125 0 L 2.796875 -2.515625 L 2.75 -2.515625 Z M 1.5625 0 "/></g></g><g transform="translate(82.453103, 29.320055)"><g><path d="M 1.46875 0.0625 C 1.21875 0.0625 1 0.015625 0.8125 -0.078125 C 0.625 -0.171875 0.476562 -0.304688 0.375 -0.484375 C 0.28125 -0.660156 0.234375 -0.875 0.234375 -1.125 C 0.234375 -1.269531 0.25 -1.421875 0.28125 -1.578125 C 0.34375 -1.867188 0.445312 -2.117188 0.59375 -2.328125 C 0.75 -2.546875 0.941406 -2.710938 1.171875 -2.828125 C 1.398438 -2.941406 1.660156 -3 1.953125 -3 C 2.203125 -3 2.421875 -2.953125 2.609375 -2.859375 C 2.796875 -2.765625 2.9375 -2.628906 3.03125 -2.453125 C 3.132812 -2.273438 3.1875 -2.0625 3.1875 -1.8125 C 3.1875 -1.675781 3.171875 -1.53125 3.140625 -1.375 C 3.078125 -1.070312 2.96875 -0.8125 2.8125 -0.59375 C 2.664062 -0.382812 2.476562 -0.222656 2.25 -0.109375 C 2.019531 0.00390625 1.757812 0.0625 1.46875 0.0625 Z M 1.53125 -0.578125 C 1.75 -0.578125 1.929688 -0.648438 2.078125 -0.796875 C 2.222656 -0.941406 2.328125 -1.164062 2.390625 -1.46875 C 2.421875 -1.59375 2.4375 -1.703125 2.4375 -1.796875 C 2.4375 -1.992188 2.390625 -2.140625 2.296875 -2.234375 C 2.203125 -2.328125 2.066406 -2.375 1.890625 -2.375 C 1.671875 -2.375 1.488281 -2.296875 1.34375 -2.140625 C 1.195312 -1.992188 1.09375 -1.769531 1.03125 -1.46875 C 1 -1.34375 0.984375 -1.234375 0.984375 -1.140625 C 0.984375 -0.953125 1.03125 -0.8125 1.125 -0.71875 C 1.226562 -0.625 1.363281 -0.578125 1.53125 -0.578125 Z M 1.53125 -0.578125 "/></g></g><g transform="translate(85.873639, 29.320055)"><g><path d="M 0.109375 0 L 0.734375 -2.953125 L 1.453125 -2.953125 L 1.359375 -2.5 L 1.421875 -2.5 C 1.515625 -2.664062 1.625 -2.785156 1.75 -2.859375 C 1.882812 -2.929688 2.039062 -2.96875 2.21875 -2.96875 C 2.300781 -2.96875 2.375 -2.957031 2.4375 -2.9375 C 2.5 -2.925781 2.546875 -2.910156 2.578125 -2.890625 L 2.34375 -2.234375 L 2.28125 -2.234375 C 2.1875 -2.273438 2.082031 -2.296875 1.96875 -2.296875 C 1.550781 -2.296875 1.273438 -1.988281 1.140625 -1.375 L 0.859375 0 Z M 0.109375 0 "/></g></g><g transform="translate(88.181567, 29.320055)"><g><path d="M 0.109375 0 L 0.984375 -4.125 L 1.734375 -4.125 L 1.234375 -1.84375 L 1.3125 -1.84375 L 2.359375 -2.953125 L 3.1875 -2.953125 L 3.171875 -2.890625 C 2.617188 -2.316406 2.171875 -1.859375 1.828125 -1.515625 C 1.953125 -1.296875 2.101562 -1.035156 2.28125 -0.734375 C 2.457031 -0.398438 2.582031 -0.175781 2.65625 -0.0625 L 2.640625 0 L 1.890625 0 C 1.691406 -0.34375 1.457031 -0.753906 1.1875 -1.234375 L 1.109375 -1.234375 L 0.859375 0 Z M 0.109375 0 "/></g></g><g transform="translate(91.135181, 29.320055)"><g><path d="M 1.078125 0.0625 C 0.898438 0.0625 0.734375 0.0351562 0.578125 -0.015625 C 0.421875 -0.0664062 0.285156 -0.132812 0.171875 -0.21875 C 0.0664062 -0.3125 -0.0078125 -0.410156 -0.0625 -0.515625 L 0.4375 -0.9375 L 0.484375 -0.9375 C 0.554688 -0.800781 0.648438 -0.703125 0.765625 -0.640625 C 0.890625 -0.578125 1.03125 -0.546875 1.1875 -0.546875 C 1.351562 -0.546875 1.476562 -0.578125 1.5625 -0.640625 C 1.644531 -0.703125 1.6875 -0.796875 1.6875 -0.921875 C 1.6875 -0.984375 1.660156 -1.035156 1.609375 -1.078125 C 1.566406 -1.128906 1.488281 -1.171875 1.375 -1.203125 L 1 -1.3125 C 0.820312 -1.363281 0.675781 -1.445312 0.5625 -1.5625 C 0.445312 -1.6875 0.390625 -1.84375 0.390625 -2.03125 C 0.390625 -2.09375 0.398438 -2.164062 0.421875 -2.25 C 0.472656 -2.488281 0.601562 -2.671875 0.8125 -2.796875 C 1.019531 -2.929688 1.300781 -3 1.65625 -3 C 1.90625 -3 2.113281 -2.957031 2.28125 -2.875 C 2.445312 -2.800781 2.578125 -2.695312 2.671875 -2.5625 L 2.203125 -2.15625 L 2.140625 -2.15625 C 2.078125 -2.25 2 -2.316406 1.90625 -2.359375 C 1.8125 -2.398438 1.703125 -2.421875 1.578125 -2.421875 C 1.429688 -2.421875 1.316406 -2.398438 1.234375 -2.359375 C 1.148438 -2.316406 1.101562 -2.25 1.09375 -2.15625 C 1.082031 -2.132812 1.078125 -2.117188 1.078125 -2.109375 C 1.078125 -2.046875 1.101562 -1.988281 1.15625 -1.9375 C 1.21875 -1.894531 1.300781 -1.863281 1.40625 -1.84375 L 1.734375 -1.75 C 2.191406 -1.632812 2.421875 -1.394531 2.421875 -1.03125 C 2.421875 -0.957031 2.410156 -0.878906 2.390625 -0.796875 C 2.328125 -0.515625 2.191406 -0.300781 1.984375 -0.15625 C 1.773438 -0.0078125 1.472656 0.0625 1.078125 0.0625 Z M 1.078125 0.0625 "/></g></g><g transform="translate(93.848663, 29.320055)"><g><path d="M -0.140625 1.1875 L 0.734375 -2.953125 L 1.484375 -2.953125 L 1.40625 -2.59375 L 1.453125 -2.578125 C 1.566406 -2.722656 1.695312 -2.828125 1.84375 -2.890625 C 1.988281 -2.960938 2.160156 -3 2.359375 -3 C 2.554688 -3 2.722656 -2.957031 2.859375 -2.875 C 3.003906 -2.789062 3.113281 -2.664062 3.1875 -2.5 C 3.257812 -2.332031 3.296875 -2.132812 3.296875 -1.90625 C 3.296875 -1.71875 3.273438 -1.53125 3.234375 -1.34375 C 3.140625 -0.882812 2.960938 -0.535156 2.703125 -0.296875 C 2.453125 -0.0546875 2.125 0.0625 1.71875 0.0625 C 1.539062 0.0625 1.390625 0.03125 1.265625 -0.03125 C 1.140625 -0.101562 1.046875 -0.203125 0.984375 -0.328125 L 0.921875 -0.3125 L 0.59375 1.1875 Z M 1.65625 -0.578125 C 2.09375 -0.578125 2.367188 -0.847656 2.484375 -1.390625 C 2.515625 -1.535156 2.53125 -1.660156 2.53125 -1.765625 C 2.53125 -1.972656 2.484375 -2.125 2.390625 -2.21875 C 2.296875 -2.320312 2.164062 -2.375 2 -2.375 C 1.800781 -2.375 1.625 -2.300781 1.46875 -2.15625 C 1.320312 -2.019531 1.222656 -1.816406 1.171875 -1.546875 C 1.140625 -1.421875 1.125 -1.300781 1.125 -1.1875 C 1.125 -0.976562 1.171875 -0.820312 1.265625 -0.71875 C 1.367188 -0.625 1.5 -0.578125 1.65625 -0.578125 Z M 1.65625 -0.578125 "/></g></g><g transform="translate(97.373256, 29.320055)"><g><path d="M 1.171875 0.0625 C 0.992188 0.0625 0.832031 0.0195312 0.6875 -0.0625 C 0.550781 -0.144531 0.4375 -0.265625 0.34375 -0.421875 C 0.257812 -0.585938 0.21875 -0.796875 0.21875 -1.046875 C 0.21875 -1.203125 0.238281 -1.367188 0.28125 -1.546875 C 0.382812 -2.023438 0.5625 -2.382812 0.8125 -2.625 C 1.070312 -2.875 1.394531 -3 1.78125 -3 C 1.96875 -3 2.125 -2.96875 2.25 -2.90625 C 2.382812 -2.84375 2.484375 -2.742188 2.546875 -2.609375 L 2.609375 -2.625 L 2.671875 -2.953125 L 3.421875 -2.953125 L 2.796875 0 L 2.046875 0 L 2.140625 -0.375 L 2.078125 -0.390625 C 1.960938 -0.242188 1.832031 -0.128906 1.6875 -0.046875 C 1.539062 0.0234375 1.367188 0.0625 1.171875 0.0625 Z M 1.5 -0.578125 C 1.707031 -0.578125 1.882812 -0.644531 2.03125 -0.78125 C 2.1875 -0.925781 2.296875 -1.140625 2.359375 -1.421875 C 2.390625 -1.546875 2.40625 -1.660156 2.40625 -1.765625 C 2.40625 -1.960938 2.359375 -2.113281 2.265625 -2.21875 C 2.171875 -2.320312 2.046875 -2.375 1.890625 -2.375 C 1.671875 -2.375 1.488281 -2.300781 1.34375 -2.15625 C 1.195312 -2.019531 1.09375 -1.804688 1.03125 -1.515625 C 1.007812 -1.378906 1 -1.265625 1 -1.171875 C 1 -0.972656 1.039062 -0.820312 1.125 -0.71875 C 1.21875 -0.625 1.34375 -0.578125 1.5 -0.578125 Z M 1.5 -0.578125 "/></g></g><g transform="translate(100.900517, 29.320055)"><g><path d="M 1.4375 0.0625 C 1.207031 0.0625 1 0.0195312 0.8125 -0.0625 C 0.632812 -0.15625 0.492188 -0.289062 0.390625 -0.46875 C 0.285156 -0.644531 0.234375 -0.859375 0.234375 -1.109375 C 0.234375 -1.242188 0.25 -1.398438 0.28125 -1.578125 C 0.34375 -1.867188 0.453125 -2.117188 0.609375 -2.328125 C 0.765625 -2.546875 0.957031 -2.710938 1.1875 -2.828125 C 1.425781 -2.941406 1.695312 -3 2 -3 C 2.3125 -3 2.550781 -2.941406 2.71875 -2.828125 C 2.894531 -2.710938 3.015625 -2.546875 3.078125 -2.328125 L 2.53125 -1.984375 L 2.46875 -1.984375 C 2.414062 -2.117188 2.34375 -2.21875 2.25 -2.28125 C 2.164062 -2.34375 2.046875 -2.375 1.890625 -2.375 C 1.679688 -2.375 1.5 -2.296875 1.34375 -2.140625 C 1.195312 -1.992188 1.085938 -1.757812 1.015625 -1.4375 C 0.992188 -1.34375 0.984375 -1.253906 0.984375 -1.171875 C 0.984375 -0.984375 1.03125 -0.835938 1.125 -0.734375 C 1.21875 -0.628906 1.351562 -0.578125 1.53125 -0.578125 C 1.820312 -0.578125 2.054688 -0.742188 2.234375 -1.078125 L 2.296875 -1.09375 L 2.796875 -0.796875 C 2.671875 -0.523438 2.492188 -0.3125 2.265625 -0.15625 C 2.046875 -0.0078125 1.769531 0.0625 1.4375 0.0625 Z M 1.4375 0.0625 "/></g></g><g transform="translate(103.934174, 29.320055)"><g><path d="M 3 -2.0625 C 2.925781 -1.726562 2.742188 -1.488281 2.453125 -1.34375 C 2.171875 -1.207031 1.820312 -1.140625 1.40625 -1.140625 C 1.257812 -1.140625 1.125 -1.144531 1 -1.15625 C 1 -0.957031 1.046875 -0.8125 1.140625 -0.71875 C 1.242188 -0.625 1.378906 -0.578125 1.546875 -0.578125 C 1.710938 -0.578125 1.847656 -0.609375 1.953125 -0.671875 C 2.066406 -0.734375 2.164062 -0.832031 2.25 -0.96875 L 2.3125 -0.96875 L 2.78125 -0.640625 C 2.6875 -0.492188 2.582031 -0.367188 2.46875 -0.265625 C 2.363281 -0.171875 2.222656 -0.09375 2.046875 -0.03125 C 1.878906 0.03125 1.671875 0.0625 1.421875 0.0625 C 1.191406 0.0625 0.988281 0.015625 0.8125 -0.078125 C 0.632812 -0.179688 0.492188 -0.320312 0.390625 -0.5 C 0.296875 -0.6875 0.25 -0.910156 0.25 -1.171875 C 0.25 -1.316406 0.265625 -1.472656 0.296875 -1.640625 C 0.359375 -1.921875 0.46875 -2.160156 0.625 -2.359375 C 0.789062 -2.566406 0.988281 -2.722656 1.21875 -2.828125 C 1.445312 -2.941406 1.695312 -3 1.96875 -3 C 2.1875 -3 2.375 -2.960938 2.53125 -2.890625 C 2.695312 -2.828125 2.816406 -2.734375 2.890625 -2.609375 C 2.972656 -2.492188 3.015625 -2.363281 3.015625 -2.21875 C 3.015625 -2.164062 3.007812 -2.113281 3 -2.0625 Z M 1.890625 -2.421875 C 1.773438 -2.421875 1.664062 -2.394531 1.5625 -2.34375 C 1.457031 -2.289062 1.359375 -2.210938 1.265625 -2.109375 C 1.179688 -2.003906 1.117188 -1.878906 1.078125 -1.734375 C 1.210938 -1.722656 1.335938 -1.71875 1.453125 -1.71875 C 1.703125 -1.71875 1.894531 -1.742188 2.03125 -1.796875 C 2.175781 -1.859375 2.265625 -1.96875 2.296875 -2.125 C 2.304688 -2.144531 2.3125 -2.160156 2.3125 -2.171875 C 2.3125 -2.242188 2.273438 -2.300781 2.203125 -2.34375 C 2.128906 -2.394531 2.023438 -2.421875 1.890625 -2.421875 Z M 1.890625 -2.421875 "/></g></g></g><g clip-path="url(#646add8043)"><g clip-path="url(#0be0bfa064)"><path fill="#ffffff" d="M 2.597656 17.316406 L 49.75 17.316406 L 49.75 33.988281 L 2.597656 33.988281 Z M 2.597656 17.316406 " fill-opacity="1" fill-rule="nonzero"/></g></g><path stroke-linecap="butt" transform="matrix(0.732558, 0, 0, 0.732558, 59.80607, 21.896229)" fill="none" stroke-linejoin="miter" d="M -0.00188768 0.498923 L 66.567063 0.498923 " stroke="#ffffff" stroke-width="1" stroke-opacity="1" stroke-miterlimit="4"/></svg>