<svg xmlns="http://www.w3.org/2000/svg" xmlns:xlink="http://www.w3.org/1999/xlink" width="152" zoomAndPan="magnify" viewBox="0 0 114 42" height="56" preserveAspectRatio="xMidYMid meet" version="1.0"><defs><g/><clipPath id="d5e900cb01"><path d="M 1.324219 0 L 112.671875 0 L 112.671875 41.023438 L 1.324219 41.023438 Z M 1.324219 0 " clip-rule="nonzero"/></clipPath><clipPath id="a579344b19"><path d="M 8 9 L 42 9 L 42 24 L 8 24 Z M 8 9 " clip-rule="nonzero"/></clipPath><clipPath id="9ac208e882"><path d="M 6.914062 13.828125 L 41.035156 9.222656 L 42.40625 19.386719 L 8.285156 23.988281 Z M 6.914062 13.828125 " clip-rule="nonzero"/></clipPath><clipPath id="7ca7a393df"><path d="M 6.914062 13.828125 L 41.035156 9.222656 L 42.40625 19.386719 L 8.285156 23.988281 Z M 6.914062 13.828125 " clip-rule="nonzero"/></clipPath><clipPath id="4847f52496"><path d="M 7.9375 20.179688 L 42.421875 20.179688 L 42.421875 29.238281 L 7.9375 29.238281 Z M 7.9375 20.179688 " clip-rule="nonzero"/></clipPath><clipPath id="9c90b7546c"><path d="M 8.449219 27.523438 C 19.773438 23.875 21.410156 23.875 22.917969 24 C 24.242188 24.0625 25.121094 24.878906 26.378906 24.691406 C 28.078125 24.441406 30.28125 22.300781 32.042969 21.609375 C 33.425781 21.105469 34.496094 20.917969 35.945312 20.726562 C 37.644531 20.476562 40.726562 19.910156 41.671875 20.351562 C 42.109375 20.539062 42.363281 20.980469 42.363281 21.292969 C 42.425781 21.546875 42.171875 21.921875 41.984375 22.113281 C 41.734375 22.238281 41.292969 22.300781 41.039062 22.175781 C 40.789062 22.050781 40.410156 21.484375 40.472656 21.230469 C 40.539062 20.855469 41.542969 20.351562 41.859375 20.414062 C 42.109375 20.476562 42.363281 20.917969 42.363281 21.167969 C 42.363281 21.484375 42.234375 21.921875 41.796875 22.175781 C 40.664062 22.929688 36.132812 22.425781 33.617188 23.179688 C 31.097656 23.9375 28.644531 26.453125 26.570312 26.707031 C 24.933594 26.894531 23.550781 25.824219 22.164062 25.761719 C 20.78125 25.636719 19.710938 25.636719 18.136719 25.949219 C 15.683594 26.453125 10.460938 29.410156 8.953125 29.222656 C 8.449219 29.160156 8.007812 28.90625 7.945312 28.59375 C 7.882812 28.277344 8.449219 27.523438 8.449219 27.523438 " clip-rule="nonzero"/></clipPath></defs><g clip-path="url(#d5e900cb01)"><path fill="#ffffff" d="M 1.324219 0 L 112.675781 0 L 112.675781 41.023438 L 1.324219 41.023438 Z M 1.324219 0 " fill-opacity="1" fill-rule="nonzero"/><path fill="#000000" d="M 1.324219 0 L 112.675781 0 L 112.675781 41.023438 L 1.324219 41.023438 Z M 1.324219 0 " fill-opacity="1" fill-rule="nonzero"/></g><g clip-path="url(#a579344b19)"><g clip-path="url(#9ac208e882)"><g clip-path="url(#7ca7a393df)"><path fill="#ffffff" d="M 16.652344 15.742188 C 14.394531 15.472656 10.230469 20.351562 9.675781 17.597656 C 9.628906 17.363281 9.8125 17.140625 10.035156 17.058594 C 10.695312 17.332031 11.417969 17.171875 12.195312 16.804688 C 11.519531 17.21875 10.757812 17.488281 10.214844 17.347656 C 10.941406 17.890625 12.128906 17.144531 13.28125 16.210938 C 14.566406 15.414062 15.980469 14.347656 17.488281 13.8125 C 19.5625 13.070312 21.78125 14.199219 24.335938 14.070312 C 25.726562 13.945312 27.109375 13.710938 28.460938 13.359375 C 27.390625 13.914062 26.269531 14.375 25.109375 14.738281 C 27.566406 14.179688 29.445312 13.386719 30.746094 12.347656 C 32.636719 11.027344 33.6875 10.214844 35.785156 10.117188 C 36.46875 10.085938 37.34375 10.171875 38.03125 10.222656 L 38.117188 9.777344 C 38.519531 9.789062 38.867188 10.074219 38.957031 10.46875 C 39.667969 10.476562 40.214844 10.804688 40.59375 11.46875 C 40.464844 11.777344 40.597656 12.097656 40.992188 12.4375 C 41.511719 12.890625 41.578125 13.183594 41.1875 13.320312 C 41.210938 13.429688 41.171875 13.542969 41.089844 13.617188 C 40.210938 14.417969 38.824219 13.273438 37.476562 13.601562 L 37.09375 14.101562 C 36.941406 14.453125 36.726562 14.761719 36.46875 15.027344 C 35.664062 14.949219 34.875 14.777344 34.113281 14.503906 C 34.839844 14.976562 35.667969 15.25 36.519531 15.324219 C 37.101562 15.445312 37.8125 15.5 38.660156 15.476562 C 39.527344 15.539062 40.171875 15.746094 40.597656 16.109375 C 41.347656 16.546875 41.851562 17.308594 41.964844 18.160156 C 41.917969 18.628906 41.527344 18.992188 41.058594 19 C 40.589844 19.007812 40.183594 18.664062 40.121094 18.195312 C 40.410156 16.96875 38.945312 16.71875 35.703125 17.453125 C 35.496094 17.503906 35.105469 17.769531 33.925781 17.464844 C 32.449219 18.582031 30.625 19.078125 28.71875 19.402344 C 27.78125 19.5625 26.96875 19.210938 26.050781 18.894531 C 23.539062 17.804688 21.082031 18.769531 19.035156 20.21875 C 17.941406 20.996094 17.308594 20.671875 15.933594 20.804688 C 15.847656 20.808594 15.757812 20.820312 15.667969 20.832031 C 12.71875 21.148438 12.726562 21.773438 10.824219 22.402344 C 10.074219 22.648438 9.511719 23.441406 9.40625 23.476562 C 8.710938 23.703125 8.507812 23.316406 8.339844 23.046875 C 8.113281 22.699219 8.332031 21.847656 8.921875 21.480469 C 9.09375 21.375 10.148438 20.859375 10.382812 20.800781 C 10.835938 20.683594 11.5 20.441406 12.359375 20.066406 C 11.386719 20.582031 10.539062 21.042969 9.910156 21.386719 C 12.425781 20.289062 14.554688 19.273438 15.515625 18.464844 C 16.257812 17.871094 16.605469 17.140625 16.550781 16.269531 C 16.550781 16.125 16.574219 15.984375 16.605469 15.855469 C 16.628906 15.8125 16.644531 15.777344 16.652344 15.742188 Z M 16.652344 15.742188 " fill-opacity="1" fill-rule="evenodd"/></g></g></g><g fill="#ffffff" fill-opacity="1"><g transform="translate(44.958249, 23.099212)"><g><path d="M 5.265625 0.15625 C 4.421875 0.15625 3.679688 0 3.046875 -0.3125 C 2.410156 -0.632812 1.910156 -1.109375 1.546875 -1.734375 C 1.191406 -2.367188 1.015625 -3.140625 1.015625 -4.046875 C 1.015625 -4.578125 1.078125 -5.140625 1.203125 -5.734375 C 1.453125 -6.921875 1.867188 -7.921875 2.453125 -8.734375 C 3.035156 -9.546875 3.753906 -10.15625 4.609375 -10.5625 C 5.472656 -10.976562 6.441406 -11.1875 7.515625 -11.1875 C 8.546875 -11.1875 9.382812 -10.972656 10.03125 -10.546875 C 10.675781 -10.117188 11.09375 -9.492188 11.28125 -8.671875 L 9.5625 -7.75 L 9.390625 -7.75 C 9.222656 -8.28125 8.957031 -8.671875 8.59375 -8.921875 C 8.238281 -9.179688 7.75 -9.3125 7.125 -9.3125 C 6.207031 -9.3125 5.425781 -9.007812 4.78125 -8.40625 C 4.144531 -7.8125 3.691406 -6.878906 3.421875 -5.609375 C 3.304688 -5.046875 3.25 -4.546875 3.25 -4.109375 C 3.25 -3.285156 3.445312 -2.679688 3.84375 -2.296875 C 4.238281 -1.921875 4.796875 -1.734375 5.515625 -1.734375 C 6.117188 -1.734375 6.660156 -1.898438 7.140625 -2.234375 C 7.628906 -2.578125 8.066406 -3.109375 8.453125 -3.828125 L 8.640625 -3.828125 L 10.203125 -2.984375 C 9.878906 -2.234375 9.492188 -1.628906 9.046875 -1.171875 C 8.597656 -0.710938 8.0625 -0.375 7.4375 -0.15625 C 6.820312 0.0507812 6.097656 0.15625 5.265625 0.15625 Z M 5.265625 0.15625 "/></g></g></g><g fill="#ffffff" fill-opacity="1"><g transform="translate(55.77767, 23.099212)"><g><path d="M 0.3125 0 L 2.796875 -11.671875 L 4.875 -11.671875 L 3.953125 -7.234375 L 4.09375 -7.203125 C 4.757812 -8.054688 5.648438 -8.484375 6.765625 -8.484375 C 7.484375 -8.484375 8.035156 -8.273438 8.421875 -7.859375 C 8.816406 -7.453125 9.015625 -6.894531 9.015625 -6.1875 C 9.015625 -5.882812 8.976562 -5.554688 8.90625 -5.203125 L 7.796875 0 L 5.703125 0 L 6.78125 -5.09375 C 6.820312 -5.289062 6.84375 -5.460938 6.84375 -5.609375 C 6.84375 -5.972656 6.738281 -6.25 6.53125 -6.4375 C 6.332031 -6.625 6.035156 -6.71875 5.640625 -6.71875 C 5.066406 -6.71875 4.578125 -6.523438 4.171875 -6.140625 C 3.773438 -5.753906 3.488281 -5.144531 3.3125 -4.3125 L 2.40625 0 Z M 0.3125 0 "/></g></g></g><g fill="#ffffff" fill-opacity="1"><g transform="translate(65.533265, 23.099212)"><g><path d="M 8.46875 -5.8125 C 8.269531 -4.882812 7.765625 -4.21875 6.953125 -3.8125 C 6.140625 -3.414062 5.144531 -3.21875 3.96875 -3.21875 C 3.550781 -3.21875 3.164062 -3.234375 2.8125 -3.265625 C 2.832031 -2.710938 2.976562 -2.296875 3.25 -2.015625 C 3.519531 -1.742188 3.898438 -1.609375 4.390625 -1.609375 C 4.847656 -1.609375 5.226562 -1.695312 5.53125 -1.875 C 5.832031 -2.0625 6.109375 -2.34375 6.359375 -2.71875 L 6.515625 -2.71875 L 7.859375 -1.796875 C 7.609375 -1.390625 7.320312 -1.046875 7 -0.765625 C 6.6875 -0.484375 6.285156 -0.257812 5.796875 -0.09375 C 5.316406 0.0703125 4.722656 0.15625 4.015625 0.15625 C 3.378906 0.15625 2.804688 0.0195312 2.296875 -0.25 C 1.796875 -0.519531 1.40625 -0.914062 1.125 -1.4375 C 0.84375 -1.957031 0.703125 -2.582031 0.703125 -3.3125 C 0.703125 -3.726562 0.75 -4.164062 0.84375 -4.625 C 1.019531 -5.425781 1.335938 -6.113281 1.796875 -6.6875 C 2.253906 -7.269531 2.804688 -7.710938 3.453125 -8.015625 C 4.109375 -8.328125 4.804688 -8.484375 5.546875 -8.484375 C 6.179688 -8.484375 6.722656 -8.382812 7.171875 -8.1875 C 7.617188 -8 7.953125 -7.734375 8.171875 -7.390625 C 8.398438 -7.054688 8.515625 -6.6875 8.515625 -6.28125 C 8.515625 -6.113281 8.5 -5.957031 8.46875 -5.8125 Z M 5.359375 -6.859375 C 5.035156 -6.859375 4.722656 -6.785156 4.421875 -6.640625 C 4.117188 -6.492188 3.84375 -6.269531 3.59375 -5.96875 C 3.34375 -5.675781 3.15625 -5.3125 3.03125 -4.875 C 3.414062 -4.851562 3.78125 -4.84375 4.125 -4.84375 C 4.8125 -4.84375 5.359375 -4.925781 5.765625 -5.09375 C 6.171875 -5.257812 6.414062 -5.5625 6.5 -6 C 6.507812 -6.0625 6.515625 -6.109375 6.515625 -6.140625 C 6.515625 -6.347656 6.414062 -6.519531 6.21875 -6.65625 C 6.019531 -6.789062 5.734375 -6.859375 5.359375 -6.859375 Z M 5.359375 -6.859375 "/></g></g></g><g fill="#ffffff" fill-opacity="1"><g transform="translate(74.579637, 23.099212)"><g><path d="M 8.46875 -5.8125 C 8.269531 -4.882812 7.765625 -4.21875 6.953125 -3.8125 C 6.140625 -3.414062 5.144531 -3.21875 3.96875 -3.21875 C 3.550781 -3.21875 3.164062 -3.234375 2.8125 -3.265625 C 2.832031 -2.710938 2.976562 -2.296875 3.25 -2.015625 C 3.519531 -1.742188 3.898438 -1.609375 4.390625 -1.609375 C 4.847656 -1.609375 5.226562 -1.695312 5.53125 -1.875 C 5.832031 -2.0625 6.109375 -2.34375 6.359375 -2.71875 L 6.515625 -2.71875 L 7.859375 -1.796875 C 7.609375 -1.390625 7.320312 -1.046875 7 -0.765625 C 6.6875 -0.484375 6.285156 -0.257812 5.796875 -0.09375 C 5.316406 0.0703125 4.722656 0.15625 4.015625 0.15625 C 3.378906 0.15625 2.804688 0.0195312 2.296875 -0.25 C 1.796875 -0.519531 1.40625 -0.914062 1.125 -1.4375 C 0.84375 -1.957031 0.703125 -2.582031 0.703125 -3.3125 C 0.703125 -3.726562 0.75 -4.164062 0.84375 -4.625 C 1.019531 -5.425781 1.335938 -6.113281 1.796875 -6.6875 C 2.253906 -7.269531 2.804688 -7.710938 3.453125 -8.015625 C 4.109375 -8.328125 4.804688 -8.484375 5.546875 -8.484375 C 6.179688 -8.484375 6.722656 -8.382812 7.171875 -8.1875 C 7.617188 -8 7.953125 -7.734375 8.171875 -7.390625 C 8.398438 -7.054688 8.515625 -6.6875 8.515625 -6.28125 C 8.515625 -6.113281 8.5 -5.957031 8.46875 -5.8125 Z M 5.359375 -6.859375 C 5.035156 -6.859375 4.722656 -6.785156 4.421875 -6.640625 C 4.117188 -6.492188 3.84375 -6.269531 3.59375 -5.96875 C 3.34375 -5.675781 3.15625 -5.3125 3.03125 -4.875 C 3.414062 -4.851562 3.78125 -4.84375 4.125 -4.84375 C 4.8125 -4.84375 5.359375 -4.925781 5.765625 -5.09375 C 6.171875 -5.257812 6.414062 -5.5625 6.5 -6 C 6.507812 -6.0625 6.515625 -6.109375 6.515625 -6.140625 C 6.515625 -6.347656 6.414062 -6.519531 6.21875 -6.65625 C 6.019531 -6.789062 5.734375 -6.859375 5.359375 -6.859375 Z M 5.359375 -6.859375 "/></g></g></g><g fill="#ffffff" fill-opacity="1"><g transform="translate(83.62601, 23.099212)"><g><path d="M 4.140625 -6.671875 L 3.328125 -2.875 C 3.304688 -2.726562 3.296875 -2.59375 3.296875 -2.46875 C 3.296875 -2.21875 3.363281 -2.023438 3.5 -1.890625 C 3.632812 -1.753906 3.832031 -1.6875 4.09375 -1.6875 C 4.269531 -1.6875 4.4375 -1.707031 4.59375 -1.75 C 4.75 -1.800781 4.910156 -1.878906 5.078125 -1.984375 L 5.234375 -1.984375 L 5.515625 -0.4375 C 5.253906 -0.238281 4.96875 -0.09375 4.65625 0 C 4.351562 0.101562 3.960938 0.15625 3.484375 0.15625 C 3.023438 0.15625 2.617188 0.078125 2.265625 -0.078125 C 1.921875 -0.242188 1.648438 -0.492188 1.453125 -0.828125 C 1.253906 -1.160156 1.15625 -1.566406 1.15625 -2.046875 C 1.15625 -2.328125 1.191406 -2.625 1.265625 -2.9375 L 2.046875 -6.671875 L 0.78125 -6.671875 L 1.140625 -8.328125 L 2.40625 -8.328125 L 2.75 -9.953125 L 4.90625 -10.296875 L 4.5 -8.328125 L 6.859375 -8.328125 L 6.5 -6.671875 Z M 4.140625 -6.671875 "/></g></g></g><g fill="#ffffff" fill-opacity="1"><g transform="translate(90.092018, 23.099212)"><g><path d="M 3.3125 0.15625 C 2.820312 0.15625 2.375 0.046875 1.96875 -0.171875 C 1.5625 -0.398438 1.234375 -0.75 0.984375 -1.21875 C 0.742188 -1.6875 0.625 -2.257812 0.625 -2.9375 C 0.625 -3.382812 0.679688 -3.867188 0.796875 -4.390625 C 1.078125 -5.734375 1.582031 -6.75 2.3125 -7.4375 C 3.039062 -8.132812 3.945312 -8.484375 5.03125 -8.484375 C 5.550781 -8.484375 6 -8.390625 6.375 -8.203125 C 6.75 -8.023438 7.03125 -7.75 7.21875 -7.375 L 7.375 -7.421875 L 7.5625 -8.328125 L 9.65625 -8.328125 L 7.890625 0 L 5.796875 0 L 6.03125 -1.078125 L 5.875 -1.109375 C 5.550781 -0.703125 5.179688 -0.390625 4.765625 -0.171875 C 4.359375 0.046875 3.875 0.15625 3.3125 0.15625 Z M 4.25 -1.609375 C 4.832031 -1.609375 5.335938 -1.8125 5.765625 -2.21875 C 6.203125 -2.625 6.503906 -3.21875 6.671875 -4 C 6.742188 -4.375 6.78125 -4.703125 6.78125 -4.984375 C 6.78125 -5.554688 6.648438 -5.984375 6.390625 -6.265625 C 6.128906 -6.554688 5.773438 -6.703125 5.328125 -6.703125 C 4.722656 -6.703125 4.210938 -6.503906 3.796875 -6.109375 C 3.390625 -5.710938 3.097656 -5.101562 2.921875 -4.28125 C 2.847656 -3.914062 2.8125 -3.585938 2.8125 -3.296875 C 2.8125 -2.742188 2.9375 -2.320312 3.1875 -2.03125 C 3.4375 -1.75 3.789062 -1.609375 4.25 -1.609375 Z M 4.25 -1.609375 "/></g></g></g><g fill="#ffffff" fill-opacity="1"><g transform="translate(100.066407, 23.099212)"><g><path d="M 0.3125 0 L 2.796875 -11.671875 L 4.875 -11.671875 L 3.953125 -7.234375 L 4.09375 -7.203125 C 4.757812 -8.054688 5.648438 -8.484375 6.765625 -8.484375 C 7.484375 -8.484375 8.035156 -8.273438 8.421875 -7.859375 C 8.816406 -7.453125 9.015625 -6.894531 9.015625 -6.1875 C 9.015625 -5.882812 8.976562 -5.554688 8.90625 -5.203125 L 7.796875 0 L 5.703125 0 L 6.78125 -5.09375 C 6.820312 -5.289062 6.84375 -5.460938 6.84375 -5.609375 C 6.84375 -5.972656 6.738281 -6.25 6.53125 -6.4375 C 6.332031 -6.625 6.035156 -6.71875 5.640625 -6.71875 C 5.066406 -6.71875 4.578125 -6.523438 4.171875 -6.140625 C 3.773438 -5.753906 3.488281 -5.144531 3.3125 -4.3125 L 2.40625 0 Z M 0.3125 0 "/></g></g></g><g clip-path="url(#4847f52496)"><g clip-path="url(#9c90b7546c)"><path fill="#ffffff" d="M 5.429688 17.832031 L 44.933594 17.832031 L 44.933594 31.800781 L 5.429688 31.800781 Z M 5.429688 17.832031 " fill-opacity="1" fill-rule="nonzero"/></g></g></svg>