<svg xmlns="http://www.w3.org/2000/svg" xmlns:xlink="http://www.w3.org/1999/xlink" width="152" zoomAndPan="magnify" viewBox="0 0 114 42" height="56" preserveAspectRatio="xMidYMid meet" version="1.0"><defs><g/><clipPath id="079e70f013"><path d="M 5 7 L 47 7 L 47 24 L 5 24 Z M 5 7 " clip-rule="nonzero"/></clipPath><clipPath id="300eb85440"><path d="M 4.371094 12.53125 L 45.023438 7.046875 L 46.589844 18.664062 L 5.9375 24.148438 Z M 4.371094 12.53125 " clip-rule="nonzero"/></clipPath><clipPath id="8ebd34fd01"><path d="M 4.371094 12.53125 L 45.023438 7.046875 L 46.589844 18.664062 L 5.9375 24.148438 Z M 4.371094 12.53125 " clip-rule="nonzero"/></clipPath><clipPath id="2a82054ae0"><path d="M 4.371094 12.53125 L 45.023438 7.046875 L 46.589844 18.664062 L 5.9375 24.148438 Z M 4.371094 12.53125 " clip-rule="nonzero"/></clipPath><clipPath id="e751a6cd28"><path d="M 5.59375 20.117188 L 46.753906 20.117188 L 46.753906 30.925781 L 5.59375 30.925781 Z M 5.59375 20.117188 " clip-rule="nonzero"/></clipPath><clipPath id="3be9e41bcc"><path d="M 6.203125 28.882812 C 19.71875 24.523438 21.671875 24.523438 23.476562 24.675781 C 25.054688 24.75 26.105469 25.726562 27.605469 25.5 C 29.632812 25.199219 32.261719 22.648438 34.367188 21.820312 C 36.019531 21.21875 37.296875 20.996094 39.023438 20.769531 C 41.050781 20.46875 44.730469 19.792969 45.855469 20.320312 C 46.382812 20.542969 46.683594 21.070312 46.683594 21.445312 C 46.757812 21.746094 46.457031 22.195312 46.234375 22.421875 C 45.933594 22.570312 45.40625 22.648438 45.105469 22.496094 C 44.804688 22.347656 44.355469 21.671875 44.429688 21.371094 C 44.503906 20.917969 45.707031 20.320312 46.082031 20.394531 C 46.382812 20.46875 46.683594 20.996094 46.683594 21.296875 C 46.683594 21.671875 46.53125 22.195312 46.007812 22.496094 C 44.65625 23.398438 39.246094 22.796875 36.242188 23.699219 C 33.238281 24.601562 30.308594 27.605469 27.832031 27.90625 C 25.878906 28.128906 24.226562 26.851562 22.574219 26.777344 C 20.921875 26.628906 19.644531 26.628906 17.769531 27.003906 C 14.839844 27.605469 8.605469 31.132812 6.800781 30.910156 C 6.203125 30.832031 5.675781 30.535156 5.601562 30.15625 C 5.527344 29.78125 6.203125 28.882812 6.203125 28.882812 " clip-rule="nonzero"/></clipPath></defs><g clip-path="url(#079e70f013)"><g clip-path="url(#300eb85440)"><g clip-path="url(#8ebd34fd01)"><g clip-path="url(#2a82054ae0)"><path fill="#231f20" d="M 15.957031 14.742188 C 13.269531 14.433594 8.296875 20.152344 7.640625 16.9375 C 7.589844 16.660156 7.808594 16.398438 8.074219 16.304688 C 8.855469 16.617188 9.71875 16.429688 10.648438 16 C 9.839844 16.484375 8.929688 16.800781 8.285156 16.640625 C 9.152344 17.273438 10.570312 16.394531 11.941406 15.300781 C 13.476562 14.367188 15.164062 13.117188 16.960938 12.488281 C 19.429688 11.613281 22.070312 12.925781 25.113281 12.765625 C 26.769531 12.613281 28.417969 12.335938 30.03125 11.925781 C 28.753906 12.574219 27.414062 13.117188 26.035156 13.542969 C 28.960938 12.882812 31.199219 11.953125 32.753906 10.734375 C 35.007812 9.179688 36.261719 8.230469 38.757812 8.109375 C 39.574219 8.074219 40.617188 8.167969 41.4375 8.226562 L 41.539062 7.703125 C 42.019531 7.71875 42.433594 8.050781 42.535156 8.511719 C 43.382812 8.519531 44.035156 8.898438 44.484375 9.675781 C 44.328125 10.035156 44.484375 10.410156 44.957031 10.804688 C 45.570312 11.335938 45.648438 11.679688 45.1875 11.839844 C 45.210938 11.964844 45.164062 12.101562 45.070312 12.1875 C 44.019531 13.125 42.371094 11.792969 40.761719 12.179688 L 40.308594 12.761719 C 40.125 13.175781 39.871094 13.539062 39.558594 13.847656 C 38.601562 13.757812 37.664062 13.5625 36.757812 13.242188 C 37.621094 13.796875 38.609375 14.113281 39.621094 14.195312 C 40.3125 14.335938 41.160156 14.398438 42.167969 14.367188 C 43.203125 14.4375 43.96875 14.679688 44.476562 15.101562 C 45.367188 15.613281 45.964844 16.5 46.097656 17.496094 C 46.039062 18.042969 45.570312 18.46875 45.015625 18.480469 C 44.457031 18.492188 43.976562 18.089844 43.902344 17.542969 C 44.25 16.109375 42.503906 15.820312 38.644531 16.6875 C 38.394531 16.746094 37.929688 17.058594 36.527344 16.707031 C 34.761719 18.019531 32.589844 18.601562 30.316406 18.988281 C 29.203125 19.179688 28.234375 18.769531 27.140625 18.402344 C 24.152344 17.136719 21.222656 18.273438 18.78125 19.972656 C 17.476562 20.882812 16.726562 20.507812 15.089844 20.664062 C 14.980469 20.667969 14.878906 20.683594 14.773438 20.699219 C 11.257812 21.074219 11.265625 21.808594 9 22.550781 C 8.101562 22.839844 7.429688 23.769531 7.304688 23.808594 C 6.476562 24.074219 6.234375 23.625 6.039062 23.3125 C 5.769531 22.902344 6.027344 21.910156 6.734375 21.476562 C 6.941406 21.351562 8.199219 20.746094 8.476562 20.675781 C 9.015625 20.539062 9.808594 20.253906 10.832031 19.8125 C 9.671875 20.417969 8.660156 20.957031 7.910156 21.367188 C 10.910156 20.074219 13.449219 18.878906 14.597656 17.933594 C 15.480469 17.234375 15.898438 16.378906 15.835938 15.363281 C 15.835938 15.195312 15.863281 15.027344 15.902344 14.878906 C 15.929688 14.828125 15.945312 14.785156 15.957031 14.742188 Z M 15.957031 14.742188 " fill-opacity="1" fill-rule="evenodd"/></g></g></g></g><g fill="#000000" fill-opacity="1"><g transform="translate(51.13007, 19.110917)"><g><path d="M 4.453125 0.140625 C 3.742188 0.140625 3.117188 0.00390625 2.578125 -0.265625 C 2.035156 -0.535156 1.613281 -0.9375 1.3125 -1.46875 C 1.007812 -2.007812 0.859375 -2.664062 0.859375 -3.4375 C 0.859375 -3.875 0.910156 -4.347656 1.015625 -4.859375 C 1.234375 -5.867188 1.585938 -6.71875 2.078125 -7.40625 C 2.578125 -8.09375 3.1875 -8.609375 3.90625 -8.953125 C 4.632812 -9.304688 5.457031 -9.484375 6.375 -9.484375 C 7.238281 -9.484375 7.941406 -9.300781 8.484375 -8.9375 C 9.035156 -8.570312 9.394531 -8.039062 9.5625 -7.34375 L 8.109375 -6.5625 L 7.953125 -6.578125 C 7.816406 -7.023438 7.59375 -7.351562 7.28125 -7.5625 C 6.976562 -7.78125 6.5625 -7.890625 6.03125 -7.890625 C 5.257812 -7.890625 4.597656 -7.632812 4.046875 -7.125 C 3.503906 -6.625 3.125 -5.832031 2.90625 -4.75 C 2.800781 -4.269531 2.75 -3.847656 2.75 -3.484375 C 2.75 -2.785156 2.914062 -2.273438 3.25 -1.953125 C 3.59375 -1.628906 4.066406 -1.46875 4.671875 -1.46875 C 5.179688 -1.46875 5.640625 -1.609375 6.046875 -1.890625 C 6.460938 -2.179688 6.832031 -2.628906 7.15625 -3.234375 L 7.328125 -3.234375 L 8.65625 -2.53125 C 8.375 -1.894531 8.039062 -1.378906 7.65625 -0.984375 C 7.28125 -0.597656 6.832031 -0.3125 6.3125 -0.125 C 5.789062 0.0507812 5.171875 0.140625 4.453125 0.140625 Z M 4.453125 0.140625 "/></g></g></g><g fill="#000000" fill-opacity="1"><g transform="translate(60.298014, 19.110917)"><g><path d="M 0.265625 0 L 2.359375 -9.890625 L 4.140625 -9.890625 L 3.34375 -6.125 L 3.46875 -6.109375 C 4.03125 -6.828125 4.785156 -7.1875 5.734375 -7.1875 C 6.335938 -7.1875 6.804688 -7.007812 7.140625 -6.65625 C 7.472656 -6.3125 7.640625 -5.835938 7.640625 -5.234375 C 7.640625 -4.984375 7.609375 -4.707031 7.546875 -4.40625 L 6.609375 0 L 4.828125 0 L 5.75 -4.3125 C 5.78125 -4.488281 5.796875 -4.632812 5.796875 -4.75 C 5.796875 -5.0625 5.707031 -5.296875 5.53125 -5.453125 C 5.363281 -5.609375 5.113281 -5.6875 4.78125 -5.6875 C 4.289062 -5.6875 3.875 -5.523438 3.53125 -5.203125 C 3.195312 -4.878906 2.957031 -4.363281 2.8125 -3.65625 L 2.046875 0 Z M 0.265625 0 "/></g></g></g><g fill="#000000" fill-opacity="1"><g transform="translate(68.564514, 19.110917)"><g><path d="M 7.171875 -4.921875 C 7.015625 -4.140625 6.585938 -3.578125 5.890625 -3.234375 C 5.203125 -2.890625 4.359375 -2.71875 3.359375 -2.71875 C 3.003906 -2.71875 2.675781 -2.734375 2.375 -2.765625 C 2.394531 -2.296875 2.519531 -1.945312 2.75 -1.71875 C 2.976562 -1.488281 3.300781 -1.375 3.71875 -1.375 C 4.101562 -1.375 4.421875 -1.445312 4.671875 -1.59375 C 4.929688 -1.75 5.171875 -1.984375 5.390625 -2.296875 L 5.53125 -2.296875 L 6.65625 -1.53125 C 6.4375 -1.175781 6.191406 -0.878906 5.921875 -0.640625 C 5.660156 -0.398438 5.320312 -0.207031 4.90625 -0.0625 C 4.5 0.0703125 4 0.140625 3.40625 0.140625 C 2.863281 0.140625 2.378906 0.0234375 1.953125 -0.203125 C 1.523438 -0.441406 1.191406 -0.78125 0.953125 -1.21875 C 0.710938 -1.664062 0.59375 -2.195312 0.59375 -2.8125 C 0.59375 -3.15625 0.632812 -3.519531 0.71875 -3.90625 C 0.863281 -4.59375 1.128906 -5.179688 1.515625 -5.671875 C 1.910156 -6.160156 2.382812 -6.535156 2.9375 -6.796875 C 3.488281 -7.054688 4.078125 -7.1875 4.703125 -7.1875 C 5.242188 -7.1875 5.703125 -7.101562 6.078125 -6.9375 C 6.453125 -6.769531 6.734375 -6.546875 6.921875 -6.265625 C 7.117188 -5.984375 7.21875 -5.671875 7.21875 -5.328125 C 7.21875 -5.179688 7.203125 -5.046875 7.171875 -4.921875 Z M 4.546875 -5.8125 C 4.265625 -5.8125 3.992188 -5.75 3.734375 -5.625 C 3.484375 -5.5 3.253906 -5.3125 3.046875 -5.0625 C 2.835938 -4.8125 2.675781 -4.503906 2.5625 -4.140625 C 2.894531 -4.109375 3.207031 -4.09375 3.5 -4.09375 C 4.070312 -4.09375 4.53125 -4.164062 4.875 -4.3125 C 5.21875 -4.457031 5.429688 -4.710938 5.515625 -5.078125 C 5.523438 -5.128906 5.53125 -5.171875 5.53125 -5.203125 C 5.53125 -5.378906 5.441406 -5.523438 5.265625 -5.640625 C 5.097656 -5.753906 4.859375 -5.8125 4.546875 -5.8125 Z M 4.546875 -5.8125 "/></g></g></g><g fill="#000000" fill-opacity="1"><g transform="translate(76.230047, 19.110917)"><g><path d="M 7.171875 -4.921875 C 7.015625 -4.140625 6.585938 -3.578125 5.890625 -3.234375 C 5.203125 -2.890625 4.359375 -2.71875 3.359375 -2.71875 C 3.003906 -2.71875 2.675781 -2.734375 2.375 -2.765625 C 2.394531 -2.296875 2.519531 -1.945312 2.75 -1.71875 C 2.976562 -1.488281 3.300781 -1.375 3.71875 -1.375 C 4.101562 -1.375 4.421875 -1.445312 4.671875 -1.59375 C 4.929688 -1.75 5.171875 -1.984375 5.390625 -2.296875 L 5.53125 -2.296875 L 6.65625 -1.53125 C 6.4375 -1.175781 6.191406 -0.878906 5.921875 -0.640625 C 5.660156 -0.398438 5.320312 -0.207031 4.90625 -0.0625 C 4.5 0.0703125 4 0.140625 3.40625 0.140625 C 2.863281 0.140625 2.378906 0.0234375 1.953125 -0.203125 C 1.523438 -0.441406 1.191406 -0.78125 0.953125 -1.21875 C 0.710938 -1.664062 0.59375 -2.195312 0.59375 -2.8125 C 0.59375 -3.15625 0.632812 -3.519531 0.71875 -3.90625 C 0.863281 -4.59375 1.128906 -5.179688 1.515625 -5.671875 C 1.910156 -6.160156 2.382812 -6.535156 2.9375 -6.796875 C 3.488281 -7.054688 4.078125 -7.1875 4.703125 -7.1875 C 5.242188 -7.1875 5.703125 -7.101562 6.078125 -6.9375 C 6.453125 -6.769531 6.734375 -6.546875 6.921875 -6.265625 C 7.117188 -5.984375 7.21875 -5.671875 7.21875 -5.328125 C 7.21875 -5.179688 7.203125 -5.046875 7.171875 -4.921875 Z M 4.546875 -5.8125 C 4.265625 -5.8125 3.992188 -5.75 3.734375 -5.625 C 3.484375 -5.5 3.253906 -5.3125 3.046875 -5.0625 C 2.835938 -4.8125 2.675781 -4.503906 2.5625 -4.140625 C 2.894531 -4.109375 3.207031 -4.09375 3.5 -4.09375 C 4.070312 -4.09375 4.53125 -4.164062 4.875 -4.3125 C 5.21875 -4.457031 5.429688 -4.710938 5.515625 -5.078125 C 5.523438 -5.128906 5.53125 -5.171875 5.53125 -5.203125 C 5.53125 -5.378906 5.441406 -5.523438 5.265625 -5.640625 C 5.097656 -5.753906 4.859375 -5.8125 4.546875 -5.8125 Z M 4.546875 -5.8125 "/></g></g></g><g fill="#000000" fill-opacity="1"><g transform="translate(83.89558, 19.110917)"><g><path d="M 3.515625 -5.65625 L 2.828125 -2.421875 C 2.796875 -2.304688 2.78125 -2.195312 2.78125 -2.09375 C 2.78125 -1.875 2.835938 -1.707031 2.953125 -1.59375 C 3.078125 -1.476562 3.25 -1.421875 3.46875 -1.421875 C 3.625 -1.421875 3.765625 -1.441406 3.890625 -1.484375 C 4.023438 -1.523438 4.160156 -1.59375 4.296875 -1.6875 L 4.4375 -1.6875 L 4.671875 -0.375 C 4.453125 -0.207031 4.210938 -0.0820312 3.953125 0 C 3.691406 0.09375 3.359375 0.140625 2.953125 0.140625 C 2.554688 0.140625 2.210938 0.0703125 1.921875 -0.0625 C 1.628906 -0.207031 1.398438 -0.421875 1.234375 -0.703125 C 1.066406 -0.984375 0.984375 -1.328125 0.984375 -1.734375 C 0.984375 -1.972656 1.007812 -2.226562 1.0625 -2.5 L 1.734375 -5.65625 L 0.671875 -5.65625 L 0.96875 -7.0625 L 2.046875 -7.0625 L 2.328125 -8.4375 L 4.15625 -8.71875 L 3.8125 -7.0625 L 5.8125 -7.0625 L 5.515625 -5.65625 Z M 3.515625 -5.65625 "/></g></g></g><g fill="#000000" fill-opacity="1"><g transform="translate(89.374616, 19.110917)"><g><path d="M 2.8125 0.140625 C 2.394531 0.140625 2.015625 0.046875 1.671875 -0.140625 C 1.328125 -0.335938 1.050781 -0.632812 0.84375 -1.03125 C 0.632812 -1.425781 0.53125 -1.914062 0.53125 -2.5 C 0.53125 -2.875 0.578125 -3.28125 0.671875 -3.71875 C 0.910156 -4.851562 1.335938 -5.710938 1.953125 -6.296875 C 2.578125 -6.890625 3.347656 -7.1875 4.265625 -7.1875 C 4.703125 -7.1875 5.078125 -7.109375 5.390625 -6.953125 C 5.710938 -6.796875 5.953125 -6.5625 6.109375 -6.25 L 6.25 -6.28125 L 6.40625 -7.0625 L 8.1875 -7.0625 L 6.6875 0 L 4.921875 0 L 5.109375 -0.921875 L 4.984375 -0.9375 C 4.710938 -0.59375 4.398438 -0.328125 4.046875 -0.140625 C 3.691406 0.046875 3.28125 0.140625 2.8125 0.140625 Z M 3.59375 -1.375 C 4.09375 -1.375 4.523438 -1.539062 4.890625 -1.875 C 5.253906 -2.21875 5.507812 -2.722656 5.65625 -3.390625 C 5.71875 -3.710938 5.75 -3.988281 5.75 -4.21875 C 5.75 -4.707031 5.632812 -5.070312 5.40625 -5.3125 C 5.1875 -5.5625 4.890625 -5.6875 4.515625 -5.6875 C 3.992188 -5.6875 3.5625 -5.515625 3.21875 -5.171875 C 2.875 -4.835938 2.625 -4.320312 2.46875 -3.625 C 2.40625 -3.3125 2.375 -3.03125 2.375 -2.78125 C 2.375 -2.320312 2.476562 -1.972656 2.6875 -1.734375 C 2.90625 -1.492188 3.207031 -1.375 3.59375 -1.375 Z M 3.59375 -1.375 "/></g></g></g><g fill="#000000" fill-opacity="1"><g transform="translate(97.826514, 19.110917)"><g><path d="M 0.265625 0 L 2.359375 -9.890625 L 4.140625 -9.890625 L 3.34375 -6.125 L 3.46875 -6.109375 C 4.03125 -6.828125 4.785156 -7.1875 5.734375 -7.1875 C 6.335938 -7.1875 6.804688 -7.007812 7.140625 -6.65625 C 7.472656 -6.3125 7.640625 -5.835938 7.640625 -5.234375 C 7.640625 -4.984375 7.609375 -4.707031 7.546875 -4.40625 L 6.609375 0 L 4.828125 0 L 5.75 -4.3125 C 5.78125 -4.488281 5.796875 -4.632812 5.796875 -4.75 C 5.796875 -5.0625 5.707031 -5.296875 5.53125 -5.453125 C 5.363281 -5.609375 5.113281 -5.6875 4.78125 -5.6875 C 4.289062 -5.6875 3.875 -5.523438 3.53125 -5.203125 C 3.195312 -4.878906 2.957031 -4.363281 2.8125 -3.65625 L 2.046875 0 Z M 0.265625 0 "/></g></g></g><g fill="#000000" fill-opacity="1"><g transform="translate(78.613674, 27.285357)"><g><path d="M 1.40625 0 L 0.625 0 L 0.5625 -3.5 L 1.234375 -3.5 L 1.234375 -1.046875 L 1.296875 -1.046875 L 2.453125 -3.5 L 3.046875 -3.5 L 3.171875 -1.046875 L 3.234375 -1.046875 L 4.28125 -3.5 L 4.953125 -3.5 L 3.421875 0 L 2.640625 0 L 2.515625 -2.265625 L 2.46875 -2.265625 Z M 1.40625 0 "/></g></g><g transform="translate(83.194867, 27.285357)"><g><path d="M 1.3125 0.046875 C 1.09375 0.046875 0.898438 0.00390625 0.734375 -0.078125 C 0.566406 -0.160156 0.4375 -0.28125 0.34375 -0.4375 C 0.25 -0.59375 0.203125 -0.78125 0.203125 -1 C 0.203125 -1.132812 0.21875 -1.273438 0.25 -1.421875 C 0.3125 -1.679688 0.410156 -1.90625 0.546875 -2.09375 C 0.679688 -2.289062 0.847656 -2.4375 1.046875 -2.53125 C 1.253906 -2.632812 1.488281 -2.6875 1.75 -2.6875 C 1.976562 -2.6875 2.175781 -2.644531 2.34375 -2.5625 C 2.507812 -2.476562 2.632812 -2.351562 2.71875 -2.1875 C 2.8125 -2.03125 2.859375 -1.84375 2.859375 -1.625 C 2.859375 -1.5 2.84375 -1.367188 2.8125 -1.234375 C 2.757812 -0.960938 2.664062 -0.726562 2.53125 -0.53125 C 2.394531 -0.34375 2.222656 -0.195312 2.015625 -0.09375 C 1.804688 0 1.570312 0.046875 1.3125 0.046875 Z M 1.375 -0.515625 C 1.570312 -0.515625 1.734375 -0.582031 1.859375 -0.71875 C 1.992188 -0.851562 2.09375 -1.050781 2.15625 -1.3125 C 2.175781 -1.425781 2.1875 -1.523438 2.1875 -1.609375 C 2.1875 -1.785156 2.140625 -1.914062 2.046875 -2 C 1.960938 -2.082031 1.84375 -2.125 1.6875 -2.125 C 1.5 -2.125 1.335938 -2.054688 1.203125 -1.921875 C 1.066406 -1.785156 0.972656 -1.582031 0.921875 -1.3125 C 0.898438 -1.207031 0.890625 -1.113281 0.890625 -1.03125 C 0.890625 -0.851562 0.929688 -0.722656 1.015625 -0.640625 C 1.097656 -0.554688 1.21875 -0.515625 1.375 -0.515625 Z M 1.375 -0.515625 "/></g></g><g transform="translate(86.263358, 27.285357)"><g><path d="M 0.09375 0 L 0.65625 -2.640625 L 1.3125 -2.640625 L 1.21875 -2.25 L 1.265625 -2.234375 C 1.359375 -2.390625 1.460938 -2.5 1.578125 -2.5625 C 1.691406 -2.632812 1.828125 -2.671875 1.984375 -2.671875 C 2.054688 -2.671875 2.117188 -2.660156 2.171875 -2.640625 C 2.234375 -2.628906 2.28125 -2.613281 2.3125 -2.59375 L 2.09375 -2.015625 L 2.046875 -2 C 1.960938 -2.039062 1.867188 -2.0625 1.765625 -2.0625 C 1.390625 -2.0625 1.144531 -1.785156 1.03125 -1.234375 L 0.765625 0 Z M 0.09375 0 "/></g></g><g transform="translate(88.333751, 27.285357)"><g><path d="M 0.09375 0 L 0.890625 -3.703125 L 1.546875 -3.703125 L 1.109375 -1.640625 L 1.171875 -1.640625 L 2.109375 -2.640625 L 2.859375 -2.640625 L 2.84375 -2.59375 C 2.34375 -2.070312 1.941406 -1.660156 1.640625 -1.359375 C 1.753906 -1.160156 1.890625 -0.925781 2.046875 -0.65625 C 2.203125 -0.363281 2.3125 -0.164062 2.375 -0.0625 L 2.359375 0 L 1.703125 0 C 1.515625 -0.3125 1.300781 -0.679688 1.0625 -1.109375 L 1 -1.109375 L 0.765625 0 Z M 0.09375 0 "/></g></g><g transform="translate(90.983376, 27.285357)"><g><path d="M 0.953125 0.046875 C 0.796875 0.046875 0.648438 0.0234375 0.515625 -0.015625 C 0.378906 -0.0546875 0.257812 -0.113281 0.15625 -0.1875 C 0.0625 -0.269531 -0.00390625 -0.359375 -0.046875 -0.453125 L 0.390625 -0.84375 L 0.4375 -0.84375 C 0.5 -0.71875 0.582031 -0.625 0.6875 -0.5625 C 0.800781 -0.507812 0.925781 -0.484375 1.0625 -0.484375 C 1.207031 -0.484375 1.316406 -0.507812 1.390625 -0.5625 C 1.472656 -0.625 1.515625 -0.710938 1.515625 -0.828125 C 1.515625 -0.878906 1.492188 -0.925781 1.453125 -0.96875 C 1.410156 -1.019531 1.335938 -1.054688 1.234375 -1.078125 L 0.90625 -1.171875 C 0.738281 -1.222656 0.601562 -1.300781 0.5 -1.40625 C 0.40625 -1.507812 0.359375 -1.648438 0.359375 -1.828125 C 0.359375 -1.878906 0.363281 -1.941406 0.375 -2.015625 C 0.414062 -2.234375 0.53125 -2.398438 0.71875 -2.515625 C 0.914062 -2.628906 1.171875 -2.6875 1.484375 -2.6875 C 1.703125 -2.6875 1.890625 -2.648438 2.046875 -2.578125 C 2.203125 -2.503906 2.316406 -2.410156 2.390625 -2.296875 L 1.96875 -1.9375 L 1.921875 -1.9375 C 1.867188 -2.019531 1.800781 -2.078125 1.71875 -2.109375 C 1.632812 -2.148438 1.535156 -2.171875 1.421875 -2.171875 C 1.285156 -2.171875 1.179688 -2.148438 1.109375 -2.109375 C 1.035156 -2.078125 0.992188 -2.019531 0.984375 -1.9375 C 0.972656 -1.914062 0.96875 -1.898438 0.96875 -1.890625 C 0.96875 -1.835938 0.992188 -1.789062 1.046875 -1.75 C 1.097656 -1.707031 1.164062 -1.675781 1.25 -1.65625 L 1.5625 -1.578125 C 1.96875 -1.472656 2.171875 -1.253906 2.171875 -0.921875 C 2.171875 -0.859375 2.164062 -0.789062 2.15625 -0.71875 C 2.09375 -0.457031 1.96875 -0.265625 1.78125 -0.140625 C 1.59375 -0.015625 1.316406 0.046875 0.953125 0.046875 Z M 0.953125 0.046875 "/></g></g><g transform="translate(93.417583, 27.285357)"><g><path d="M -0.125 1.078125 L 0.65625 -2.640625 L 1.328125 -2.640625 L 1.25 -2.328125 L 1.3125 -2.3125 C 1.40625 -2.4375 1.519531 -2.53125 1.65625 -2.59375 C 1.789062 -2.65625 1.941406 -2.6875 2.109375 -2.6875 C 2.285156 -2.6875 2.4375 -2.648438 2.5625 -2.578125 C 2.695312 -2.503906 2.796875 -2.394531 2.859375 -2.25 C 2.929688 -2.101562 2.96875 -1.921875 2.96875 -1.703125 C 2.96875 -1.546875 2.945312 -1.378906 2.90625 -1.203125 C 2.820312 -0.796875 2.660156 -0.484375 2.421875 -0.265625 C 2.191406 -0.0546875 1.894531 0.046875 1.53125 0.046875 C 1.375 0.046875 1.238281 0.0195312 1.125 -0.03125 C 1.019531 -0.09375 0.9375 -0.179688 0.875 -0.296875 L 0.828125 -0.28125 L 0.53125 1.078125 Z M 1.484375 -0.515625 C 1.878906 -0.515625 2.128906 -0.757812 2.234375 -1.25 C 2.253906 -1.382812 2.265625 -1.5 2.265625 -1.59375 C 2.265625 -1.769531 2.222656 -1.898438 2.140625 -1.984375 C 2.054688 -2.078125 1.941406 -2.125 1.796875 -2.125 C 1.617188 -2.125 1.460938 -2.0625 1.328125 -1.9375 C 1.191406 -1.8125 1.097656 -1.628906 1.046875 -1.390625 C 1.023438 -1.273438 1.015625 -1.164062 1.015625 -1.0625 C 1.015625 -0.882812 1.054688 -0.75 1.140625 -0.65625 C 1.222656 -0.5625 1.335938 -0.515625 1.484375 -0.515625 Z M 1.484375 -0.515625 "/></g></g><g transform="translate(96.579421, 27.285357)"><g><path d="M 1.046875 0.046875 C 0.890625 0.046875 0.75 0.0078125 0.625 -0.0625 C 0.5 -0.132812 0.394531 -0.242188 0.3125 -0.390625 C 0.238281 -0.535156 0.203125 -0.71875 0.203125 -0.9375 C 0.203125 -1.070312 0.21875 -1.222656 0.25 -1.390625 C 0.34375 -1.816406 0.503906 -2.140625 0.734375 -2.359375 C 0.960938 -2.578125 1.25 -2.6875 1.59375 -2.6875 C 1.757812 -2.6875 1.898438 -2.65625 2.015625 -2.59375 C 2.140625 -2.539062 2.234375 -2.457031 2.296875 -2.34375 L 2.34375 -2.359375 L 2.40625 -2.640625 L 3.0625 -2.640625 L 2.5 0 L 1.84375 0 L 1.921875 -0.34375 L 1.859375 -0.359375 C 1.765625 -0.222656 1.648438 -0.117188 1.515625 -0.046875 C 1.378906 0.015625 1.222656 0.046875 1.046875 0.046875 Z M 1.34375 -0.515625 C 1.53125 -0.515625 1.691406 -0.578125 1.828125 -0.703125 C 1.960938 -0.828125 2.0625 -1.015625 2.125 -1.265625 C 2.144531 -1.390625 2.15625 -1.492188 2.15625 -1.578125 C 2.15625 -1.765625 2.113281 -1.898438 2.03125 -1.984375 C 1.945312 -2.078125 1.832031 -2.125 1.6875 -2.125 C 1.5 -2.125 1.335938 -2.0625 1.203125 -1.9375 C 1.078125 -1.8125 0.984375 -1.617188 0.921875 -1.359375 C 0.898438 -1.242188 0.890625 -1.140625 0.890625 -1.046875 C 0.890625 -0.867188 0.925781 -0.734375 1 -0.640625 C 1.082031 -0.554688 1.195312 -0.515625 1.34375 -0.515625 Z M 1.34375 -0.515625 "/></g></g><g transform="translate(99.743652, 27.285357)"><g><path d="M 1.296875 0.046875 C 1.085938 0.046875 0.898438 0.0078125 0.734375 -0.0625 C 0.566406 -0.144531 0.4375 -0.265625 0.34375 -0.421875 C 0.25 -0.578125 0.203125 -0.769531 0.203125 -1 C 0.203125 -1.125 0.21875 -1.265625 0.25 -1.421875 C 0.3125 -1.679688 0.410156 -1.90625 0.546875 -2.09375 C 0.679688 -2.289062 0.851562 -2.4375 1.0625 -2.53125 C 1.28125 -2.632812 1.523438 -2.6875 1.796875 -2.6875 C 2.078125 -2.6875 2.289062 -2.632812 2.4375 -2.53125 C 2.59375 -2.425781 2.703125 -2.28125 2.765625 -2.09375 L 2.265625 -1.78125 L 2.21875 -1.78125 C 2.175781 -1.894531 2.113281 -1.976562 2.03125 -2.03125 C 1.945312 -2.09375 1.835938 -2.125 1.703125 -2.125 C 1.515625 -2.125 1.347656 -2.054688 1.203125 -1.921875 C 1.066406 -1.785156 0.96875 -1.578125 0.90625 -1.296875 C 0.894531 -1.203125 0.890625 -1.117188 0.890625 -1.046875 C 0.890625 -0.878906 0.929688 -0.75 1.015625 -0.65625 C 1.097656 -0.5625 1.21875 -0.515625 1.375 -0.515625 C 1.632812 -0.515625 1.84375 -0.664062 2 -0.96875 L 2.0625 -0.984375 L 2.515625 -0.703125 C 2.398438 -0.472656 2.242188 -0.289062 2.046875 -0.15625 C 1.847656 -0.0195312 1.597656 0.046875 1.296875 0.046875 Z M 1.296875 0.046875 "/></g></g><g transform="translate(102.465082, 27.285357)"><g><path d="M 2.6875 -1.84375 C 2.625 -1.550781 2.460938 -1.335938 2.203125 -1.203125 C 1.953125 -1.078125 1.640625 -1.015625 1.265625 -1.015625 C 1.128906 -1.015625 1.003906 -1.019531 0.890625 -1.03125 C 0.898438 -0.863281 0.945312 -0.734375 1.03125 -0.640625 C 1.113281 -0.554688 1.234375 -0.515625 1.390625 -0.515625 C 1.535156 -0.515625 1.65625 -0.539062 1.75 -0.59375 C 1.851562 -0.65625 1.941406 -0.742188 2.015625 -0.859375 L 2.0625 -0.859375 L 2.5 -0.578125 C 2.414062 -0.441406 2.320312 -0.328125 2.21875 -0.234375 C 2.125 -0.148438 2 -0.0820312 1.84375 -0.03125 C 1.6875 0.0195312 1.5 0.046875 1.28125 0.046875 C 1.070312 0.046875 0.890625 0.00390625 0.734375 -0.078125 C 0.578125 -0.160156 0.453125 -0.285156 0.359375 -0.453125 C 0.265625 -0.617188 0.21875 -0.816406 0.21875 -1.046875 C 0.21875 -1.179688 0.234375 -1.320312 0.265625 -1.46875 C 0.316406 -1.71875 0.414062 -1.9375 0.5625 -2.125 C 0.707031 -2.3125 0.882812 -2.453125 1.09375 -2.546875 C 1.300781 -2.640625 1.523438 -2.6875 1.765625 -2.6875 C 1.960938 -2.6875 2.128906 -2.65625 2.265625 -2.59375 C 2.410156 -2.539062 2.519531 -2.457031 2.59375 -2.34375 C 2.664062 -2.238281 2.703125 -2.125 2.703125 -2 C 2.703125 -1.945312 2.695312 -1.894531 2.6875 -1.84375 Z M 1.703125 -2.171875 C 1.597656 -2.171875 1.492188 -2.144531 1.390625 -2.09375 C 1.296875 -2.050781 1.207031 -1.984375 1.125 -1.890625 C 1.050781 -1.804688 0.992188 -1.691406 0.953125 -1.546875 C 1.078125 -1.535156 1.195312 -1.53125 1.3125 -1.53125 C 1.53125 -1.53125 1.703125 -1.554688 1.828125 -1.609375 C 1.953125 -1.671875 2.03125 -1.769531 2.0625 -1.90625 C 2.0625 -1.925781 2.0625 -1.941406 2.0625 -1.953125 C 2.0625 -2.015625 2.03125 -2.066406 1.96875 -2.109375 C 1.90625 -2.148438 1.816406 -2.171875 1.703125 -2.171875 Z M 1.703125 -2.171875 "/></g></g></g><g clip-path="url(#e751a6cd28)"><g clip-path="url(#3be9e41bcc)"><path fill="#231f20" d="M 2.597656 17.316406 L 49.75 17.316406 L 49.75 33.988281 L 2.597656 33.988281 Z M 2.597656 17.316406 " fill-opacity="1" fill-rule="nonzero"/></g></g><path stroke-linecap="butt" transform="matrix(0.732558, 0, 0, 0.732558, 59.80607, 21.89623)" fill="none" stroke-linejoin="miter" d="M -0.00188768 0.498921 L 66.567063 0.498921 " stroke="#000000" stroke-width="1" stroke-opacity="1" stroke-miterlimit="4"/></svg>