<svg xmlns="http://www.w3.org/2000/svg" xmlns:xlink="http://www.w3.org/1999/xlink" width="152" zoomAndPan="magnify" viewBox="0 0 114 42" height="56" preserveAspectRatio="xMidYMid meet" version="1.0"><defs><g/><clipPath id="f3971276c2"><path d="M 1.324219 0 L 112.671875 0 L 112.671875 41.023438 L 1.324219 41.023438 Z M 1.324219 0 " clip-rule="nonzero"/></clipPath><clipPath id="9752508957"><path d="M 8 10 L 46 10 L 46 26 L 8 26 Z M 8 10 " clip-rule="nonzero"/></clipPath><clipPath id="e11105dadd"><path d="M 7.058594 14.648438 L 44.808594 9.558594 L 46.277344 20.445312 L 8.527344 25.539062 Z M 7.058594 14.648438 " clip-rule="nonzero"/></clipPath><clipPath id="796581844f"><path d="M 7.058594 14.648438 L 44.808594 9.558594 L 46.277344 20.445312 L 8.527344 25.539062 Z M 7.058594 14.648438 " clip-rule="nonzero"/></clipPath><clipPath id="75b569f6cd"><path d="M 7.058594 14.648438 L 44.808594 9.558594 L 46.277344 20.445312 L 8.527344 25.539062 Z M 7.058594 14.648438 " clip-rule="nonzero"/></clipPath><clipPath id="49f1a94ce1"><path d="M 8.183594 21.621094 L 46 21.621094 L 46 31.558594 L 8.183594 31.558594 Z M 8.183594 21.621094 " clip-rule="nonzero"/></clipPath><clipPath id="dd15ed5889"><path d="M 8.742188 29.679688 C 21.171875 25.675781 22.964844 25.675781 24.621094 25.8125 C 26.074219 25.882812 27.039062 26.78125 28.421875 26.574219 C 30.285156 26.296875 32.699219 23.949219 34.632812 23.1875 C 36.152344 22.636719 37.328125 22.429688 38.914062 22.222656 C 40.777344 21.945312 44.164062 21.324219 45.199219 21.808594 C 45.679688 22.015625 45.957031 22.5 45.957031 22.84375 C 46.027344 23.121094 45.75 23.535156 45.542969 23.742188 C 45.265625 23.878906 44.785156 23.949219 44.507812 23.8125 C 44.230469 23.671875 43.816406 23.050781 43.886719 22.773438 C 43.957031 22.359375 45.058594 21.808594 45.40625 21.878906 C 45.679688 21.945312 45.957031 22.429688 45.957031 22.707031 C 45.957031 23.050781 45.820312 23.535156 45.335938 23.8125 C 44.09375 24.640625 39.121094 24.085938 36.359375 24.914062 C 33.597656 25.742188 30.90625 28.503906 28.628906 28.78125 C 26.832031 28.988281 25.3125 27.816406 23.792969 27.746094 C 22.273438 27.609375 21.101562 27.609375 19.375 27.953125 C 16.683594 28.503906 10.953125 31.75 9.292969 31.542969 C 8.742188 31.476562 8.257812 31.199219 8.191406 30.851562 C 8.121094 30.507812 8.742188 29.679688 8.742188 29.679688 " clip-rule="nonzero"/></clipPath></defs><g clip-path="url(#f3971276c2)"><path fill="#ffffff" d="M 1.324219 0 L 112.675781 0 L 112.675781 41.023438 L 1.324219 41.023438 Z M 1.324219 0 " fill-opacity="1" fill-rule="nonzero"/><path fill="#ffffff" d="M 1.324219 0 L 112.675781 0 L 112.675781 41.023438 L 1.324219 41.023438 Z M 1.324219 0 " fill-opacity="1" fill-rule="nonzero"/></g><g clip-path="url(#9752508957)"><g clip-path="url(#e11105dadd)"><g clip-path="url(#796581844f)"><g clip-path="url(#75b569f6cd)"><path fill="#231f20" d="M 17.828125 16.734375 C 15.332031 16.441406 10.726562 21.796875 10.113281 18.78125 C 10.0625 18.523438 10.265625 18.277344 10.511719 18.1875 C 11.238281 18.484375 12.039062 18.308594 12.898438 17.90625 C 12.152344 18.359375 11.308594 18.65625 10.707031 18.503906 C 11.511719 19.097656 12.828125 18.277344 14.101562 17.253906 C 15.523438 16.378906 17.089844 15.207031 18.753906 14.621094 C 21.046875 13.804688 23.5 15.039062 26.324219 14.890625 C 27.863281 14.753906 29.390625 14.492188 30.886719 14.109375 C 29.703125 14.714844 28.460938 15.222656 27.179688 15.625 C 29.894531 15.007812 31.972656 14.136719 33.414062 13 C 35.503906 11.546875 36.667969 10.65625 38.984375 10.546875 C 39.742188 10.511719 40.707031 10.601562 41.472656 10.65625 L 41.566406 10.167969 C 42.007812 10.183594 42.394531 10.496094 42.492188 10.929688 C 43.277344 10.933594 43.882812 11.292969 44.300781 12.023438 C 44.15625 12.359375 44.300781 12.710938 44.742188 13.082031 C 45.3125 13.578125 45.386719 13.902344 44.957031 14.050781 C 44.980469 14.167969 44.9375 14.292969 44.847656 14.375 C 43.875 15.253906 42.339844 14 40.851562 14.363281 L 40.429688 14.910156 C 40.257812 15.296875 40.023438 15.636719 39.734375 15.925781 C 38.84375 15.839844 37.972656 15.65625 37.132812 15.355469 C 37.933594 15.875 38.851562 16.171875 39.792969 16.25 C 40.4375 16.382812 41.222656 16.441406 42.15625 16.414062 C 43.117188 16.480469 43.828125 16.710938 44.300781 17.109375 C 45.128906 17.585938 45.683594 18.417969 45.808594 19.355469 C 45.757812 19.867188 45.320312 20.265625 44.804688 20.277344 C 44.289062 20.285156 43.839844 19.90625 43.769531 19.394531 C 44.09375 18.050781 42.46875 17.777344 38.886719 18.585938 C 38.660156 18.640625 38.226562 18.933594 36.921875 18.601562 C 35.289062 19.828125 33.273438 20.371094 31.164062 20.734375 C 30.125 20.910156 29.226562 20.523438 28.214844 20.179688 C 25.4375 18.988281 22.71875 20.050781 20.457031 21.640625 C 19.246094 22.492188 18.550781 22.140625 17.027344 22.285156 C 16.929688 22.289062 16.832031 22.300781 16.734375 22.316406 C 13.472656 22.664062 13.480469 23.351562 11.378906 24.042969 C 10.546875 24.316406 9.921875 25.183594 9.804688 25.222656 C 9.039062 25.46875 8.8125 25.046875 8.628906 24.753906 C 8.378906 24.371094 8.621094 23.441406 9.273438 23.035156 C 9.464844 22.917969 10.632812 22.351562 10.890625 22.289062 C 11.390625 22.160156 12.125 21.894531 13.078125 21.480469 C 12 22.046875 11.0625 22.550781 10.367188 22.933594 C 13.148438 21.726562 15.503906 20.605469 16.570312 19.722656 C 17.386719 19.070312 17.773438 18.269531 17.714844 17.316406 C 17.71875 17.15625 17.742188 17.003906 17.777344 16.863281 C 17.800781 16.8125 17.816406 16.773438 17.828125 16.734375 Z M 17.828125 16.734375 " fill-opacity="1" fill-rule="evenodd"/></g></g></g></g><g fill="#000000" fill-opacity="1"><g transform="translate(48.801594, 20.895613)"><g><path d="M 4.21875 0.125 C 3.539062 0.125 2.945312 0 2.4375 -0.25 C 1.925781 -0.507812 1.523438 -0.890625 1.234375 -1.390625 C 0.953125 -1.898438 0.8125 -2.519531 0.8125 -3.25 C 0.8125 -3.664062 0.859375 -4.113281 0.953125 -4.59375 C 1.160156 -5.539062 1.5 -6.335938 1.96875 -6.984375 C 2.4375 -7.640625 3.015625 -8.132812 3.703125 -8.46875 C 4.390625 -8.800781 5.164062 -8.96875 6.03125 -8.96875 C 6.84375 -8.96875 7.503906 -8.789062 8.015625 -8.4375 C 8.535156 -8.09375 8.875 -7.59375 9.03125 -6.9375 L 7.65625 -6.203125 L 7.515625 -6.21875 C 7.378906 -6.632812 7.164062 -6.941406 6.875 -7.140625 C 6.59375 -7.347656 6.203125 -7.453125 5.703125 -7.453125 C 4.972656 -7.453125 4.347656 -7.210938 3.828125 -6.734375 C 3.316406 -6.253906 2.957031 -5.503906 2.75 -4.484375 C 2.644531 -4.035156 2.59375 -3.640625 2.59375 -3.296875 C 2.59375 -2.628906 2.75 -2.144531 3.0625 -1.84375 C 3.382812 -1.539062 3.832031 -1.390625 4.40625 -1.390625 C 4.894531 -1.390625 5.332031 -1.523438 5.71875 -1.796875 C 6.113281 -2.066406 6.460938 -2.488281 6.765625 -3.0625 L 6.921875 -3.0625 L 8.171875 -2.390625 C 7.910156 -1.785156 7.597656 -1.300781 7.234375 -0.9375 C 6.878906 -0.570312 6.453125 -0.300781 5.953125 -0.125 C 5.460938 0.0390625 4.882812 0.125 4.21875 0.125 Z M 4.21875 0.125 "/></g></g></g><g fill="#000000" fill-opacity="1"><g transform="translate(57.464854, 20.895613)"><g><path d="M 0.25 0 L 2.234375 -9.34375 L 3.90625 -9.34375 L 3.15625 -5.796875 L 3.28125 -5.765625 C 3.8125 -6.453125 4.523438 -6.796875 5.421875 -6.796875 C 5.992188 -6.796875 6.4375 -6.628906 6.75 -6.296875 C 7.0625 -5.972656 7.21875 -5.523438 7.21875 -4.953125 C 7.21875 -4.710938 7.1875 -4.453125 7.125 -4.171875 L 6.234375 0 L 4.5625 0 L 5.4375 -4.078125 C 5.46875 -4.242188 5.484375 -4.382812 5.484375 -4.5 C 5.484375 -4.789062 5.398438 -5.007812 5.234375 -5.15625 C 5.066406 -5.300781 4.828125 -5.375 4.515625 -5.375 C 4.054688 -5.375 3.664062 -5.21875 3.34375 -4.90625 C 3.03125 -4.601562 2.800781 -4.117188 2.65625 -3.453125 L 1.921875 0 Z M 0.25 0 "/></g></g></g><g fill="#000000" fill-opacity="1"><g transform="translate(65.276294, 20.895613)"><g><path d="M 6.78125 -4.65625 C 6.625 -3.914062 6.21875 -3.382812 5.5625 -3.0625 C 4.914062 -2.738281 4.117188 -2.578125 3.171875 -2.578125 C 2.835938 -2.578125 2.53125 -2.585938 2.25 -2.609375 C 2.257812 -2.171875 2.375 -1.84375 2.59375 -1.625 C 2.8125 -1.40625 3.117188 -1.296875 3.515625 -1.296875 C 3.878906 -1.296875 4.179688 -1.367188 4.421875 -1.515625 C 4.671875 -1.660156 4.894531 -1.878906 5.09375 -2.171875 L 5.21875 -2.171875 L 6.296875 -1.4375 C 6.085938 -1.113281 5.859375 -0.835938 5.609375 -0.609375 C 5.359375 -0.378906 5.035156 -0.195312 4.640625 -0.0625 C 4.253906 0.0625 3.78125 0.125 3.21875 0.125 C 2.707031 0.125 2.25 0.015625 1.84375 -0.203125 C 1.445312 -0.421875 1.132812 -0.738281 0.90625 -1.15625 C 0.675781 -1.570312 0.5625 -2.070312 0.5625 -2.65625 C 0.5625 -2.976562 0.597656 -3.328125 0.671875 -3.703125 C 0.804688 -4.347656 1.054688 -4.898438 1.421875 -5.359375 C 1.796875 -5.828125 2.242188 -6.179688 2.765625 -6.421875 C 3.285156 -6.671875 3.847656 -6.796875 4.453125 -6.796875 C 4.953125 -6.796875 5.378906 -6.71875 5.734375 -6.5625 C 6.097656 -6.40625 6.367188 -6.191406 6.546875 -5.921875 C 6.734375 -5.648438 6.828125 -5.351562 6.828125 -5.03125 C 6.828125 -4.894531 6.8125 -4.769531 6.78125 -4.65625 Z M 4.296875 -5.5 C 4.035156 -5.5 3.78125 -5.4375 3.53125 -5.3125 C 3.289062 -5.195312 3.070312 -5.019531 2.875 -4.78125 C 2.675781 -4.550781 2.523438 -4.257812 2.421875 -3.90625 C 2.734375 -3.882812 3.03125 -3.875 3.3125 -3.875 C 3.851562 -3.875 4.285156 -3.941406 4.609375 -4.078125 C 4.929688 -4.210938 5.128906 -4.453125 5.203125 -4.796875 C 5.210938 -4.847656 5.21875 -4.890625 5.21875 -4.921875 C 5.21875 -5.085938 5.132812 -5.222656 4.96875 -5.328125 C 4.8125 -5.441406 4.585938 -5.5 4.296875 -5.5 Z M 4.296875 -5.5 "/></g></g></g><g fill="#000000" fill-opacity="1"><g transform="translate(72.51985, 20.895613)"><g><path d="M 6.78125 -4.65625 C 6.625 -3.914062 6.21875 -3.382812 5.5625 -3.0625 C 4.914062 -2.738281 4.117188 -2.578125 3.171875 -2.578125 C 2.835938 -2.578125 2.53125 -2.585938 2.25 -2.609375 C 2.257812 -2.171875 2.375 -1.84375 2.59375 -1.625 C 2.8125 -1.40625 3.117188 -1.296875 3.515625 -1.296875 C 3.878906 -1.296875 4.179688 -1.367188 4.421875 -1.515625 C 4.671875 -1.660156 4.894531 -1.878906 5.09375 -2.171875 L 5.21875 -2.171875 L 6.296875 -1.4375 C 6.085938 -1.113281 5.859375 -0.835938 5.609375 -0.609375 C 5.359375 -0.378906 5.035156 -0.195312 4.640625 -0.0625 C 4.253906 0.0625 3.78125 0.125 3.21875 0.125 C 2.707031 0.125 2.25 0.015625 1.84375 -0.203125 C 1.445312 -0.421875 1.132812 -0.738281 0.90625 -1.15625 C 0.675781 -1.570312 0.5625 -2.070312 0.5625 -2.65625 C 0.5625 -2.976562 0.597656 -3.328125 0.671875 -3.703125 C 0.804688 -4.347656 1.054688 -4.898438 1.421875 -5.359375 C 1.796875 -5.828125 2.242188 -6.179688 2.765625 -6.421875 C 3.285156 -6.671875 3.847656 -6.796875 4.453125 -6.796875 C 4.953125 -6.796875 5.378906 -6.71875 5.734375 -6.5625 C 6.097656 -6.40625 6.367188 -6.191406 6.546875 -5.921875 C 6.734375 -5.648438 6.828125 -5.351562 6.828125 -5.03125 C 6.828125 -4.894531 6.8125 -4.769531 6.78125 -4.65625 Z M 4.296875 -5.5 C 4.035156 -5.5 3.78125 -5.4375 3.53125 -5.3125 C 3.289062 -5.195312 3.070312 -5.019531 2.875 -4.78125 C 2.675781 -4.550781 2.523438 -4.257812 2.421875 -3.90625 C 2.734375 -3.882812 3.03125 -3.875 3.3125 -3.875 C 3.851562 -3.875 4.285156 -3.941406 4.609375 -4.078125 C 4.929688 -4.210938 5.128906 -4.453125 5.203125 -4.796875 C 5.210938 -4.847656 5.21875 -4.890625 5.21875 -4.921875 C 5.21875 -5.085938 5.132812 -5.222656 4.96875 -5.328125 C 4.8125 -5.441406 4.585938 -5.5 4.296875 -5.5 Z M 4.296875 -5.5 "/></g></g></g><g fill="#000000" fill-opacity="1"><g transform="translate(79.763405, 20.895613)"><g><path d="M 3.3125 -5.34375 L 2.671875 -2.296875 C 2.648438 -2.179688 2.640625 -2.078125 2.640625 -1.984375 C 2.640625 -1.773438 2.691406 -1.613281 2.796875 -1.5 C 2.910156 -1.394531 3.070312 -1.34375 3.28125 -1.34375 C 3.425781 -1.34375 3.5625 -1.363281 3.6875 -1.40625 C 3.8125 -1.445312 3.9375 -1.507812 4.0625 -1.59375 L 4.1875 -1.59375 L 4.421875 -0.34375 C 4.210938 -0.1875 3.984375 -0.0703125 3.734375 0 C 3.492188 0.0820312 3.175781 0.125 2.78125 0.125 C 2.414062 0.125 2.09375 0.0625 1.8125 -0.0625 C 1.539062 -0.195312 1.328125 -0.394531 1.171875 -0.65625 C 1.015625 -0.925781 0.9375 -1.253906 0.9375 -1.640625 C 0.9375 -1.867188 0.960938 -2.109375 1.015625 -2.359375 L 1.640625 -5.34375 L 0.625 -5.34375 L 0.90625 -6.671875 L 1.921875 -6.671875 L 2.203125 -7.96875 L 3.9375 -8.234375 L 3.59375 -6.671875 L 5.5 -6.671875 L 5.203125 -5.34375 Z M 3.3125 -5.34375 "/></g></g></g><g fill="#000000" fill-opacity="1"><g transform="translate(84.940827, 20.895613)"><g><path d="M 2.65625 0.125 C 2.257812 0.125 1.898438 0.0351562 1.578125 -0.140625 C 1.253906 -0.328125 0.992188 -0.601562 0.796875 -0.96875 C 0.597656 -1.34375 0.5 -1.804688 0.5 -2.359375 C 0.5 -2.710938 0.546875 -3.097656 0.640625 -3.515625 C 0.867188 -4.585938 1.273438 -5.398438 1.859375 -5.953125 C 2.441406 -6.515625 3.164062 -6.796875 4.03125 -6.796875 C 4.445312 -6.796875 4.804688 -6.722656 5.109375 -6.578125 C 5.410156 -6.429688 5.632812 -6.207031 5.78125 -5.90625 L 5.90625 -5.9375 L 6.0625 -6.671875 L 7.734375 -6.671875 L 6.328125 0 L 4.640625 0 L 4.828125 -0.859375 L 4.703125 -0.890625 C 4.453125 -0.566406 4.160156 -0.316406 3.828125 -0.140625 C 3.492188 0.0351562 3.101562 0.125 2.65625 0.125 Z M 3.40625 -1.296875 C 3.875 -1.296875 4.28125 -1.457031 4.625 -1.78125 C 4.96875 -2.101562 5.207031 -2.578125 5.34375 -3.203125 C 5.40625 -3.503906 5.4375 -3.769531 5.4375 -4 C 5.4375 -4.445312 5.328125 -4.785156 5.109375 -5.015625 C 4.898438 -5.253906 4.617188 -5.375 4.265625 -5.375 C 3.773438 -5.375 3.363281 -5.210938 3.03125 -4.890625 C 2.707031 -4.578125 2.476562 -4.085938 2.34375 -3.421875 C 2.28125 -3.128906 2.25 -2.867188 2.25 -2.640625 C 2.25 -2.191406 2.347656 -1.851562 2.546875 -1.625 C 2.753906 -1.40625 3.039062 -1.296875 3.40625 -1.296875 Z M 3.40625 -1.296875 "/></g></g></g><g fill="#000000" fill-opacity="1"><g transform="translate(92.927459, 20.895613)"><g><path d="M 0.25 0 L 2.234375 -9.34375 L 3.90625 -9.34375 L 3.15625 -5.796875 L 3.28125 -5.765625 C 3.8125 -6.453125 4.523438 -6.796875 5.421875 -6.796875 C 5.992188 -6.796875 6.4375 -6.628906 6.75 -6.296875 C 7.0625 -5.972656 7.21875 -5.523438 7.21875 -4.953125 C 7.21875 -4.710938 7.1875 -4.453125 7.125 -4.171875 L 6.234375 0 L 4.5625 0 L 5.4375 -4.078125 C 5.46875 -4.242188 5.484375 -4.382812 5.484375 -4.5 C 5.484375 -4.789062 5.398438 -5.007812 5.234375 -5.15625 C 5.066406 -5.300781 4.828125 -5.375 4.515625 -5.375 C 4.054688 -5.375 3.664062 -5.21875 3.34375 -4.90625 C 3.03125 -4.601562 2.800781 -4.117188 2.65625 -3.453125 L 1.921875 0 Z M 0.25 0 "/></g></g></g><g fill="#000000" fill-opacity="1"><g transform="translate(74.772265, 30.327026)"><g><path d="M 1.484375 0 L 0.65625 0 L 0.59375 -3.703125 L 1.296875 -3.703125 L 1.3125 -1.09375 L 1.375 -1.09375 L 2.59375 -3.703125 L 3.21875 -3.703125 L 3.359375 -1.09375 L 3.421875 -1.09375 L 4.515625 -3.703125 L 5.234375 -3.703125 L 3.609375 0 L 2.796875 0 L 2.65625 -2.390625 L 2.609375 -2.390625 Z M 1.484375 0 "/></g></g><g transform="translate(79.625133, 30.327026)"><g><path d="M 1.390625 0.046875 C 1.148438 0.046875 0.941406 0.00390625 0.765625 -0.078125 C 0.597656 -0.160156 0.460938 -0.285156 0.359375 -0.453125 C 0.265625 -0.617188 0.21875 -0.820312 0.21875 -1.0625 C 0.21875 -1.195312 0.234375 -1.34375 0.265625 -1.5 C 0.328125 -1.78125 0.425781 -2.019531 0.5625 -2.21875 C 0.707031 -2.425781 0.890625 -2.582031 1.109375 -2.6875 C 1.328125 -2.789062 1.578125 -2.84375 1.859375 -2.84375 C 2.097656 -2.84375 2.300781 -2.796875 2.46875 -2.703125 C 2.644531 -2.617188 2.78125 -2.488281 2.875 -2.3125 C 2.976562 -2.144531 3.03125 -1.945312 3.03125 -1.71875 C 3.03125 -1.582031 3.015625 -1.441406 2.984375 -1.296875 C 2.921875 -1.015625 2.816406 -0.769531 2.671875 -0.5625 C 2.523438 -0.363281 2.34375 -0.210938 2.125 -0.109375 C 1.914062 -0.00390625 1.671875 0.046875 1.390625 0.046875 Z M 1.453125 -0.546875 C 1.660156 -0.546875 1.832031 -0.613281 1.96875 -0.75 C 2.113281 -0.894531 2.21875 -1.109375 2.28125 -1.390625 C 2.300781 -1.515625 2.3125 -1.617188 2.3125 -1.703125 C 2.3125 -1.890625 2.265625 -2.023438 2.171875 -2.109375 C 2.078125 -2.203125 1.953125 -2.25 1.796875 -2.25 C 1.585938 -2.25 1.410156 -2.175781 1.265625 -2.03125 C 1.128906 -1.894531 1.03125 -1.679688 0.96875 -1.390625 C 0.945312 -1.273438 0.9375 -1.171875 0.9375 -1.078125 C 0.9375 -0.898438 0.976562 -0.765625 1.0625 -0.671875 C 1.15625 -0.585938 1.285156 -0.546875 1.453125 -0.546875 Z M 1.453125 -0.546875 "/></g></g><g transform="translate(82.875591, 30.327026)"><g><path d="M 0.109375 0 L 0.703125 -2.796875 L 1.375 -2.796875 L 1.296875 -2.375 L 1.34375 -2.375 C 1.4375 -2.53125 1.546875 -2.640625 1.671875 -2.703125 C 1.796875 -2.773438 1.941406 -2.8125 2.109375 -2.8125 C 2.179688 -2.8125 2.25 -2.804688 2.3125 -2.796875 C 2.375 -2.785156 2.421875 -2.765625 2.453125 -2.734375 L 2.21875 -2.125 L 2.171875 -2.109375 C 2.078125 -2.148438 1.976562 -2.171875 1.875 -2.171875 C 1.46875 -2.171875 1.203125 -1.882812 1.078125 -1.3125 L 0.8125 0 Z M 0.109375 0 "/></g></g><g transform="translate(85.068763, 30.327026)"><g><path d="M 0.109375 0 L 0.9375 -3.921875 L 1.640625 -3.921875 L 1.171875 -1.75 L 1.25 -1.75 L 2.234375 -2.796875 L 3.015625 -2.796875 L 3 -2.734375 C 2.476562 -2.191406 2.054688 -1.757812 1.734375 -1.4375 C 1.847656 -1.226562 1.988281 -0.976562 2.15625 -0.6875 C 2.332031 -0.375 2.453125 -0.164062 2.515625 -0.0625 L 2.5 0 L 1.796875 0 C 1.597656 -0.320312 1.375 -0.710938 1.125 -1.171875 L 1.0625 -1.171875 L 0.8125 0 Z M 0.109375 0 "/></g></g><g transform="translate(87.875515, 30.327026)"><g><path d="M 1.015625 0.046875 C 0.847656 0.046875 0.691406 0.0234375 0.546875 -0.015625 C 0.398438 -0.0664062 0.273438 -0.128906 0.171875 -0.203125 C 0.0664062 -0.285156 -0.00390625 -0.378906 -0.046875 -0.484375 L 0.40625 -0.890625 L 0.46875 -0.890625 C 0.53125 -0.765625 0.617188 -0.671875 0.734375 -0.609375 C 0.847656 -0.546875 0.976562 -0.515625 1.125 -0.515625 C 1.28125 -0.515625 1.398438 -0.546875 1.484375 -0.609375 C 1.566406 -0.671875 1.609375 -0.757812 1.609375 -0.875 C 1.609375 -0.9375 1.582031 -0.988281 1.53125 -1.03125 C 1.488281 -1.082031 1.410156 -1.117188 1.296875 -1.140625 L 0.953125 -1.25 C 0.773438 -1.300781 0.632812 -1.378906 0.53125 -1.484375 C 0.425781 -1.597656 0.375 -1.742188 0.375 -1.921875 C 0.375 -1.984375 0.378906 -2.054688 0.390625 -2.140625 C 0.441406 -2.359375 0.566406 -2.53125 0.765625 -2.65625 C 0.972656 -2.78125 1.242188 -2.84375 1.578125 -2.84375 C 1.804688 -2.84375 2 -2.800781 2.15625 -2.71875 C 2.320312 -2.644531 2.445312 -2.546875 2.53125 -2.421875 L 2.09375 -2.046875 L 2.03125 -2.046875 C 1.976562 -2.128906 1.90625 -2.191406 1.8125 -2.234375 C 1.726562 -2.273438 1.625 -2.296875 1.5 -2.296875 C 1.351562 -2.296875 1.242188 -2.273438 1.171875 -2.234375 C 1.097656 -2.191406 1.050781 -2.128906 1.03125 -2.046875 C 1.03125 -2.023438 1.03125 -2.007812 1.03125 -2 C 1.03125 -1.945312 1.054688 -1.894531 1.109375 -1.84375 C 1.160156 -1.800781 1.234375 -1.769531 1.328125 -1.75 L 1.65625 -1.671875 C 2.082031 -1.554688 2.296875 -1.328125 2.296875 -0.984375 C 2.296875 -0.910156 2.285156 -0.835938 2.265625 -0.765625 C 2.210938 -0.492188 2.082031 -0.289062 1.875 -0.15625 C 1.675781 -0.0195312 1.390625 0.046875 1.015625 0.046875 Z M 1.015625 0.046875 "/></g></g><g transform="translate(90.454076, 30.327026)"><g><path d="M -0.140625 1.125 L 0.703125 -2.796875 L 1.40625 -2.796875 L 1.328125 -2.453125 L 1.375 -2.4375 C 1.488281 -2.570312 1.613281 -2.671875 1.75 -2.734375 C 1.882812 -2.804688 2.046875 -2.84375 2.234375 -2.84375 C 2.421875 -2.84375 2.582031 -2.800781 2.71875 -2.71875 C 2.851562 -2.644531 2.957031 -2.53125 3.03125 -2.375 C 3.101562 -2.21875 3.140625 -2.03125 3.140625 -1.8125 C 3.140625 -1.632812 3.117188 -1.453125 3.078125 -1.265625 C 2.984375 -0.835938 2.8125 -0.507812 2.5625 -0.28125 C 2.320312 -0.0625 2.007812 0.046875 1.625 0.046875 C 1.457031 0.046875 1.316406 0.015625 1.203125 -0.046875 C 1.085938 -0.109375 0.992188 -0.195312 0.921875 -0.3125 L 0.875 -0.296875 L 0.5625 1.125 Z M 1.578125 -0.546875 C 1.984375 -0.546875 2.242188 -0.804688 2.359375 -1.328125 C 2.390625 -1.460938 2.40625 -1.582031 2.40625 -1.6875 C 2.40625 -1.875 2.359375 -2.015625 2.265625 -2.109375 C 2.179688 -2.203125 2.054688 -2.25 1.890625 -2.25 C 1.703125 -2.25 1.535156 -2.179688 1.390625 -2.046875 C 1.253906 -1.910156 1.160156 -1.71875 1.109375 -1.46875 C 1.085938 -1.34375 1.078125 -1.226562 1.078125 -1.125 C 1.078125 -0.925781 1.117188 -0.78125 1.203125 -0.6875 C 1.296875 -0.59375 1.421875 -0.546875 1.578125 -0.546875 Z M 1.578125 -0.546875 "/></g></g><g transform="translate(93.803417, 30.327026)"><g><path d="M 1.109375 0.046875 C 0.941406 0.046875 0.789062 0.0078125 0.65625 -0.0625 C 0.519531 -0.132812 0.410156 -0.25 0.328125 -0.40625 C 0.242188 -0.5625 0.203125 -0.753906 0.203125 -0.984375 C 0.203125 -1.128906 0.222656 -1.289062 0.265625 -1.46875 C 0.359375 -1.914062 0.523438 -2.253906 0.765625 -2.484375 C 1.015625 -2.722656 1.320312 -2.84375 1.6875 -2.84375 C 1.863281 -2.84375 2.015625 -2.8125 2.140625 -2.75 C 2.265625 -2.695312 2.359375 -2.609375 2.421875 -2.484375 L 2.484375 -2.484375 L 2.546875 -2.796875 L 3.25 -2.796875 L 2.65625 0 L 1.953125 0 L 2.03125 -0.359375 L 1.96875 -0.375 C 1.863281 -0.238281 1.738281 -0.132812 1.59375 -0.0625 C 1.457031 0.0078125 1.296875 0.046875 1.109375 0.046875 Z M 1.421875 -0.546875 C 1.617188 -0.546875 1.789062 -0.613281 1.9375 -0.75 C 2.082031 -0.882812 2.179688 -1.082031 2.234375 -1.34375 C 2.265625 -1.46875 2.28125 -1.578125 2.28125 -1.671875 C 2.28125 -1.859375 2.234375 -2 2.140625 -2.09375 C 2.054688 -2.195312 1.941406 -2.25 1.796875 -2.25 C 1.585938 -2.25 1.410156 -2.179688 1.265625 -2.046875 C 1.128906 -1.921875 1.035156 -1.71875 0.984375 -1.4375 C 0.953125 -1.3125 0.9375 -1.203125 0.9375 -1.109375 C 0.9375 -0.921875 0.976562 -0.78125 1.0625 -0.6875 C 1.15625 -0.59375 1.273438 -0.546875 1.421875 -0.546875 Z M 1.421875 -0.546875 "/></g></g><g transform="translate(97.155293, 30.327026)"><g><path d="M 1.375 0.046875 C 1.144531 0.046875 0.941406 0.0078125 0.765625 -0.0625 C 0.597656 -0.144531 0.460938 -0.269531 0.359375 -0.4375 C 0.265625 -0.601562 0.21875 -0.8125 0.21875 -1.0625 C 0.21875 -1.1875 0.234375 -1.332031 0.265625 -1.5 C 0.328125 -1.78125 0.429688 -2.019531 0.578125 -2.21875 C 0.722656 -2.425781 0.90625 -2.582031 1.125 -2.6875 C 1.351562 -2.789062 1.613281 -2.84375 1.90625 -2.84375 C 2.195312 -2.84375 2.421875 -2.785156 2.578125 -2.671875 C 2.742188 -2.566406 2.859375 -2.410156 2.921875 -2.203125 L 2.390625 -1.875 L 2.34375 -1.875 C 2.289062 -2 2.222656 -2.09375 2.140625 -2.15625 C 2.054688 -2.21875 1.941406 -2.25 1.796875 -2.25 C 1.597656 -2.25 1.425781 -2.175781 1.28125 -2.03125 C 1.132812 -1.882812 1.03125 -1.660156 0.96875 -1.359375 C 0.945312 -1.265625 0.9375 -1.179688 0.9375 -1.109375 C 0.9375 -0.929688 0.976562 -0.789062 1.0625 -0.6875 C 1.15625 -0.59375 1.285156 -0.546875 1.453125 -0.546875 C 1.722656 -0.546875 1.945312 -0.707031 2.125 -1.03125 L 2.171875 -1.03125 L 2.65625 -0.75 C 2.539062 -0.5 2.375 -0.300781 2.15625 -0.15625 C 1.945312 -0.0195312 1.6875 0.046875 1.375 0.046875 Z M 1.375 0.046875 "/></g></g><g transform="translate(100.03811, 30.327026)"><g><path d="M 2.84375 -1.953125 C 2.78125 -1.640625 2.609375 -1.414062 2.328125 -1.28125 C 2.054688 -1.144531 1.722656 -1.078125 1.328125 -1.078125 C 1.191406 -1.078125 1.0625 -1.082031 0.9375 -1.09375 C 0.945312 -0.90625 0.992188 -0.765625 1.078125 -0.671875 C 1.171875 -0.585938 1.300781 -0.546875 1.46875 -0.546875 C 1.625 -0.546875 1.753906 -0.570312 1.859375 -0.625 C 1.960938 -0.6875 2.054688 -0.78125 2.140625 -0.90625 L 2.1875 -0.90625 L 2.640625 -0.609375 C 2.554688 -0.460938 2.457031 -0.34375 2.34375 -0.25 C 2.238281 -0.15625 2.101562 -0.0820312 1.9375 -0.03125 C 1.78125 0.0195312 1.582031 0.046875 1.34375 0.046875 C 1.132812 0.046875 0.941406 0.00390625 0.765625 -0.078125 C 0.597656 -0.171875 0.46875 -0.304688 0.375 -0.484375 C 0.28125 -0.660156 0.234375 -0.867188 0.234375 -1.109375 C 0.234375 -1.242188 0.25 -1.390625 0.28125 -1.546875 C 0.34375 -1.816406 0.445312 -2.050781 0.59375 -2.25 C 0.75 -2.445312 0.9375 -2.59375 1.15625 -2.6875 C 1.375 -2.789062 1.609375 -2.84375 1.859375 -2.84375 C 2.078125 -2.84375 2.257812 -2.8125 2.40625 -2.75 C 2.550781 -2.6875 2.660156 -2.597656 2.734375 -2.484375 C 2.816406 -2.367188 2.859375 -2.242188 2.859375 -2.109375 C 2.859375 -2.054688 2.851562 -2.003906 2.84375 -1.953125 Z M 1.796875 -2.296875 C 1.691406 -2.296875 1.585938 -2.269531 1.484375 -2.21875 C 1.378906 -2.175781 1.285156 -2.101562 1.203125 -2 C 1.117188 -1.90625 1.054688 -1.785156 1.015625 -1.640625 C 1.140625 -1.628906 1.265625 -1.625 1.390625 -1.625 C 1.617188 -1.625 1.800781 -1.648438 1.9375 -1.703125 C 2.070312 -1.765625 2.15625 -1.867188 2.1875 -2.015625 C 2.1875 -2.035156 2.1875 -2.050781 2.1875 -2.0625 C 2.1875 -2.132812 2.148438 -2.191406 2.078125 -2.234375 C 2.015625 -2.273438 1.921875 -2.296875 1.796875 -2.296875 Z M 1.796875 -2.296875 "/></g></g></g><g clip-path="url(#49f1a94ce1)"><g clip-path="url(#dd15ed5889)"><path fill="#231f20" d="M 5.429688 19.046875 L 48.777344 19.046875 L 48.777344 34.375 L 5.429688 34.375 Z M 5.429688 19.046875 " fill-opacity="1" fill-rule="nonzero"/></g></g><path stroke-linecap="butt" transform="matrix(0.732558, 0.000000000000000083, -0.000000000000000083, 0.732558, 56.999998, 23.507434)" fill="none" stroke-linejoin="miter" d="M 0.00000316667 0.501757 L 62.905635 0.501757 " stroke="#000000" stroke-width="1" stroke-opacity="1" stroke-miterlimit="4"/></svg>