<svg xmlns="http://www.w3.org/2000/svg" xmlns:xlink="http://www.w3.org/1999/xlink" width="152" zoomAndPan="magnify" viewBox="0 0 114 42" height="56" preserveAspectRatio="xMidYMid meet" version="1.0"><defs><g/><clipPath id="cba4aec2ea"><path d="M 1.324219 0 L 112.671875 0 L 112.671875 41.023438 L 1.324219 41.023438 Z M 1.324219 0 " clip-rule="nonzero"/></clipPath><clipPath id="6442d57f6d"><path d="M 9 12 L 41 12 L 41 26 L 9 26 Z M 9 12 " clip-rule="nonzero"/></clipPath><clipPath id="c6c5ff5a10"><path d="M 8.359375 15.980469 L 39.578125 11.769531 L 40.851562 21.207031 L 9.632812 25.417969 Z M 8.359375 15.980469 " clip-rule="nonzero"/></clipPath><clipPath id="2d85b49755"><path d="M 8.359375 15.980469 L 39.578125 11.769531 L 40.851562 21.207031 L 9.632812 25.417969 Z M 8.359375 15.980469 " clip-rule="nonzero"/></clipPath><clipPath id="22468d7e7f"><path d="M 8.359375 15.980469 L 39.578125 11.769531 L 40.851562 21.207031 L 9.632812 25.417969 Z M 8.359375 15.980469 " clip-rule="nonzero"/></clipPath><clipPath id="86ff107ae8"><path d="M 9.304688 21.835938 L 41.074219 21.835938 L 41.074219 30.179688 L 9.304688 30.179688 Z M 9.304688 21.835938 " clip-rule="nonzero"/></clipPath><clipPath id="9d509cf9d6"><path d="M 9.773438 28.601562 C 20.210938 25.238281 21.714844 25.238281 23.109375 25.355469 C 24.324219 25.410156 25.136719 26.164062 26.296875 25.992188 C 27.859375 25.757812 29.890625 23.789062 31.511719 23.152344 C 32.789062 22.6875 33.773438 22.511719 35.109375 22.339844 C 36.671875 22.109375 39.511719 21.585938 40.382812 21.992188 C 40.789062 22.164062 41.019531 22.570312 41.019531 22.859375 C 41.078125 23.09375 40.847656 23.441406 40.671875 23.613281 C 40.441406 23.730469 40.035156 23.789062 39.804688 23.671875 C 39.570312 23.558594 39.222656 23.035156 39.28125 22.804688 C 39.339844 22.457031 40.265625 21.992188 40.558594 22.050781 C 40.789062 22.109375 41.019531 22.511719 41.019531 22.746094 C 41.019531 23.035156 40.90625 23.441406 40.5 23.671875 C 39.457031 24.367188 35.28125 23.90625 32.960938 24.601562 C 30.644531 25.296875 28.382812 27.613281 26.46875 27.847656 C 24.960938 28.019531 23.6875 27.035156 22.410156 26.976562 C 21.136719 26.859375 20.152344 26.859375 18.703125 27.152344 C 16.441406 27.613281 11.628906 30.339844 10.238281 30.164062 C 9.773438 30.109375 9.367188 29.875 9.3125 29.585938 C 9.253906 29.296875 9.773438 28.601562 9.773438 28.601562 " clip-rule="nonzero"/></clipPath></defs><g clip-path="url(#cba4aec2ea)"><path fill="#ffffff" d="M 1.324219 0 L 112.675781 0 L 112.675781 41.023438 L 1.324219 41.023438 Z M 1.324219 0 " fill-opacity="1" fill-rule="nonzero"/><path fill="#ffffff" d="M 1.324219 0 L 112.675781 0 L 112.675781 41.023438 L 1.324219 41.023438 Z M 1.324219 0 " fill-opacity="1" fill-rule="nonzero"/></g><g clip-path="url(#6442d57f6d)"><g clip-path="url(#c6c5ff5a10)"><g clip-path="url(#2d85b49755)"><g clip-path="url(#22468d7e7f)"><path fill="#231f20" d="M 17.285156 17.84375 C 15.21875 17.578125 11.433594 22.191406 10.910156 19.574219 C 10.867188 19.351562 11.035156 19.136719 11.238281 19.066406 C 11.839844 19.324219 12.503906 19.175781 13.210938 18.832031 C 12.597656 19.222656 11.898438 19.472656 11.402344 19.335938 C 12.070312 19.855469 13.15625 19.152344 14.203125 18.273438 C 15.375 17.523438 16.664062 16.519531 18.042969 16.019531 C 19.933594 15.324219 21.972656 16.40625 24.308594 16.292969 C 25.578125 16.179688 26.84375 15.964844 28.078125 15.640625 C 27.101562 16.160156 26.078125 16.59375 25.019531 16.929688 C 27.261719 16.414062 28.980469 15.667969 30.164062 14.691406 C 31.886719 13.441406 32.84375 12.679688 34.761719 12.597656 C 35.390625 12.570312 36.1875 12.652344 36.820312 12.707031 L 36.894531 12.28125 C 37.261719 12.300781 37.582031 12.570312 37.664062 12.945312 C 38.316406 12.957031 38.820312 13.269531 39.167969 13.902344 C 39.050781 14.191406 39.175781 14.496094 39.539062 14.820312 C 40.015625 15.253906 40.078125 15.535156 39.722656 15.660156 C 39.742188 15.765625 39.707031 15.875 39.632812 15.941406 C 38.835938 16.699219 37.558594 15.605469 36.324219 15.910156 L 35.980469 16.382812 C 35.839844 16.714844 35.648438 17.011719 35.410156 17.257812 C 34.675781 17.179688 33.953125 17.015625 33.253906 16.75 C 33.921875 17.203125 34.683594 17.46875 35.460938 17.539062 C 35.992188 17.660156 36.644531 17.714844 37.417969 17.695312 C 38.214844 17.757812 38.800781 17.960938 39.195312 18.308594 C 39.882812 18.726562 40.347656 19.449219 40.457031 20.257812 C 40.414062 20.703125 40.058594 21.046875 39.628906 21.050781 C 39.203125 21.058594 38.828125 20.726562 38.769531 20.285156 C 39.027344 19.121094 37.683594 18.878906 34.722656 19.558594 C 34.535156 19.605469 34.175781 19.855469 33.097656 19.5625 C 31.75 20.613281 30.085938 21.074219 28.34375 21.375 C 27.484375 21.523438 26.738281 21.1875 25.898438 20.878906 C 23.59375 19.835938 21.351562 20.742188 19.488281 22.105469 C 18.488281 22.835938 17.910156 22.527344 16.652344 22.644531 C 16.570312 22.648438 16.492188 22.660156 16.410156 22.671875 C 13.710938 22.957031 13.722656 23.550781 11.984375 24.140625 C 11.296875 24.371094 10.789062 25.121094 10.691406 25.152344 C 10.058594 25.363281 9.871094 24.996094 9.714844 24.738281 C 9.507812 24.40625 9.699219 23.601562 10.238281 23.253906 C 10.398438 23.15625 11.359375 22.671875 11.574219 22.617188 C 11.988281 22.507812 12.59375 22.28125 13.378906 21.925781 C 12.492188 22.414062 11.71875 22.84375 11.144531 23.171875 C 13.4375 22.140625 15.382812 21.183594 16.257812 20.425781 C 16.933594 19.863281 17.25 19.171875 17.195312 18.347656 C 17.195312 18.210938 17.214844 18.074219 17.242188 17.953125 C 17.261719 17.910156 17.277344 17.878906 17.285156 17.84375 Z M 17.285156 17.84375 " fill-opacity="1" fill-rule="evenodd"/></g></g></g></g><g fill="#000000" fill-opacity="1"><g transform="translate(45.217594, 25.653258)"><g><path d="M 5.140625 0.15625 C 4.316406 0.15625 3.59375 0 2.96875 -0.3125 C 2.351562 -0.625 1.867188 -1.085938 1.515625 -1.703125 C 1.160156 -2.316406 0.984375 -3.066406 0.984375 -3.953125 C 0.984375 -4.460938 1.046875 -5.007812 1.171875 -5.59375 C 1.421875 -6.757812 1.828125 -7.738281 2.390625 -8.53125 C 2.960938 -9.332031 3.664062 -9.929688 4.5 -10.328125 C 5.34375 -10.734375 6.289062 -10.9375 7.34375 -10.9375 C 8.34375 -10.9375 9.15625 -10.722656 9.78125 -10.296875 C 10.414062 -9.878906 10.828125 -9.269531 11.015625 -8.46875 L 9.34375 -7.5625 L 9.171875 -7.578125 C 9.003906 -8.085938 8.742188 -8.46875 8.390625 -8.71875 C 8.046875 -8.96875 7.566406 -9.09375 6.953125 -9.09375 C 6.054688 -9.09375 5.296875 -8.800781 4.671875 -8.21875 C 4.046875 -7.632812 3.601562 -6.71875 3.34375 -5.46875 C 3.226562 -4.925781 3.171875 -4.441406 3.171875 -4.015625 C 3.171875 -3.210938 3.363281 -2.625 3.75 -2.25 C 4.132812 -1.875 4.675781 -1.6875 5.375 -1.6875 C 5.96875 -1.6875 6.5 -1.851562 6.96875 -2.1875 C 7.445312 -2.519531 7.875 -3.035156 8.25 -3.734375 L 8.4375 -3.734375 L 9.96875 -2.90625 C 9.65625 -2.175781 9.273438 -1.585938 8.828125 -1.140625 C 8.390625 -0.691406 7.867188 -0.363281 7.265625 -0.15625 C 6.671875 0.0507812 5.960938 0.15625 5.140625 0.15625 Z M 5.140625 0.15625 "/></g></g></g><g fill="#000000" fill-opacity="1"><g transform="translate(55.781767, 25.653258)"><g><path d="M 0.3125 0 L 2.734375 -11.390625 L 4.765625 -11.390625 L 3.859375 -7.0625 L 4 -7.03125 C 4.644531 -7.863281 5.515625 -8.28125 6.609375 -8.28125 C 7.304688 -8.28125 7.847656 -8.078125 8.234375 -7.671875 C 8.617188 -7.273438 8.8125 -6.726562 8.8125 -6.03125 C 8.8125 -5.738281 8.773438 -5.421875 8.703125 -5.078125 L 7.609375 0 L 5.578125 0 L 6.625 -4.96875 C 6.664062 -5.164062 6.6875 -5.335938 6.6875 -5.484375 C 6.6875 -5.835938 6.585938 -6.101562 6.390625 -6.28125 C 6.191406 -6.46875 5.898438 -6.5625 5.515625 -6.5625 C 4.953125 -6.5625 4.472656 -6.375 4.078125 -6 C 3.691406 -5.625 3.414062 -5.023438 3.25 -4.203125 L 2.34375 0 Z M 0.3125 0 "/></g></g></g><g fill="#000000" fill-opacity="1"><g transform="translate(65.307211, 25.653258)"><g><path d="M 8.265625 -5.671875 C 8.078125 -4.765625 7.582031 -4.113281 6.78125 -3.71875 C 5.988281 -3.332031 5.019531 -3.140625 3.875 -3.140625 C 3.46875 -3.140625 3.085938 -3.15625 2.734375 -3.1875 C 2.753906 -2.644531 2.894531 -2.238281 3.15625 -1.96875 C 3.425781 -1.707031 3.804688 -1.578125 4.296875 -1.578125 C 4.734375 -1.578125 5.097656 -1.664062 5.390625 -1.84375 C 5.691406 -2.019531 5.96875 -2.289062 6.21875 -2.65625 L 6.375 -2.65625 L 7.671875 -1.765625 C 7.421875 -1.359375 7.140625 -1.015625 6.828125 -0.734375 C 6.523438 -0.460938 6.132812 -0.242188 5.65625 -0.078125 C 5.1875 0.078125 4.609375 0.15625 3.921875 0.15625 C 3.296875 0.15625 2.738281 0.0195312 2.25 -0.25 C 1.757812 -0.519531 1.375 -0.90625 1.09375 -1.40625 C 0.820312 -1.914062 0.6875 -2.523438 0.6875 -3.234375 C 0.6875 -3.640625 0.734375 -4.066406 0.828125 -4.515625 C 0.992188 -5.296875 1.300781 -5.96875 1.75 -6.53125 C 2.195312 -7.101562 2.738281 -7.535156 3.375 -7.828125 C 4.007812 -8.128906 4.691406 -8.28125 5.421875 -8.28125 C 6.046875 -8.28125 6.570312 -8.1875 7 -8 C 7.4375 -7.8125 7.765625 -7.550781 7.984375 -7.21875 C 8.210938 -6.894531 8.328125 -6.535156 8.328125 -6.140625 C 8.328125 -5.972656 8.304688 -5.816406 8.265625 -5.671875 Z M 5.234375 -6.703125 C 4.921875 -6.703125 4.613281 -6.628906 4.3125 -6.484375 C 4.019531 -6.335938 3.75 -6.117188 3.5 -5.828125 C 3.257812 -5.546875 3.078125 -5.191406 2.953125 -4.765625 C 3.328125 -4.734375 3.6875 -4.71875 4.03125 -4.71875 C 4.695312 -4.71875 5.226562 -4.800781 5.625 -4.96875 C 6.019531 -5.132812 6.265625 -5.429688 6.359375 -5.859375 C 6.367188 -5.921875 6.375 -5.96875 6.375 -6 C 6.375 -6.207031 6.273438 -6.375 6.078125 -6.5 C 5.878906 -6.632812 5.597656 -6.703125 5.234375 -6.703125 Z M 5.234375 -6.703125 "/></g></g></g><g fill="#000000" fill-opacity="1"><g transform="translate(74.140164, 25.653258)"><g><path d="M 8.265625 -5.671875 C 8.078125 -4.765625 7.582031 -4.113281 6.78125 -3.71875 C 5.988281 -3.332031 5.019531 -3.140625 3.875 -3.140625 C 3.46875 -3.140625 3.085938 -3.15625 2.734375 -3.1875 C 2.753906 -2.644531 2.894531 -2.238281 3.15625 -1.96875 C 3.425781 -1.707031 3.804688 -1.578125 4.296875 -1.578125 C 4.734375 -1.578125 5.097656 -1.664062 5.390625 -1.84375 C 5.691406 -2.019531 5.96875 -2.289062 6.21875 -2.65625 L 6.375 -2.65625 L 7.671875 -1.765625 C 7.421875 -1.359375 7.140625 -1.015625 6.828125 -0.734375 C 6.523438 -0.460938 6.132812 -0.242188 5.65625 -0.078125 C 5.1875 0.078125 4.609375 0.15625 3.921875 0.15625 C 3.296875 0.15625 2.738281 0.0195312 2.25 -0.25 C 1.757812 -0.519531 1.375 -0.90625 1.09375 -1.40625 C 0.820312 -1.914062 0.6875 -2.523438 0.6875 -3.234375 C 0.6875 -3.640625 0.734375 -4.066406 0.828125 -4.515625 C 0.992188 -5.296875 1.300781 -5.96875 1.75 -6.53125 C 2.195312 -7.101562 2.738281 -7.535156 3.375 -7.828125 C 4.007812 -8.128906 4.691406 -8.28125 5.421875 -8.28125 C 6.046875 -8.28125 6.570312 -8.1875 7 -8 C 7.4375 -7.8125 7.765625 -7.550781 7.984375 -7.21875 C 8.210938 -6.894531 8.328125 -6.535156 8.328125 -6.140625 C 8.328125 -5.972656 8.304688 -5.816406 8.265625 -5.671875 Z M 5.234375 -6.703125 C 4.921875 -6.703125 4.613281 -6.628906 4.3125 -6.484375 C 4.019531 -6.335938 3.75 -6.117188 3.5 -5.828125 C 3.257812 -5.546875 3.078125 -5.191406 2.953125 -4.765625 C 3.328125 -4.734375 3.6875 -4.71875 4.03125 -4.71875 C 4.695312 -4.71875 5.226562 -4.800781 5.625 -4.96875 C 6.019531 -5.132812 6.265625 -5.429688 6.359375 -5.859375 C 6.367188 -5.921875 6.375 -5.96875 6.375 -6 C 6.375 -6.207031 6.273438 -6.375 6.078125 -6.5 C 5.878906 -6.632812 5.597656 -6.703125 5.234375 -6.703125 Z M 5.234375 -6.703125 "/></g></g></g><g fill="#000000" fill-opacity="1"><g transform="translate(82.973116, 25.653258)"><g><path d="M 4.046875 -6.515625 L 3.25 -2.796875 C 3.226562 -2.660156 3.21875 -2.535156 3.21875 -2.421875 C 3.21875 -2.171875 3.285156 -1.976562 3.421875 -1.84375 C 3.554688 -1.707031 3.75 -1.640625 4 -1.640625 C 4.175781 -1.640625 4.335938 -1.664062 4.484375 -1.71875 C 4.640625 -1.769531 4.796875 -1.84375 4.953125 -1.9375 L 5.109375 -1.9375 L 5.390625 -0.421875 C 5.128906 -0.234375 4.847656 -0.09375 4.546875 0 C 4.253906 0.101562 3.867188 0.15625 3.390625 0.15625 C 2.953125 0.15625 2.5625 0.078125 2.21875 -0.078125 C 1.875 -0.242188 1.609375 -0.488281 1.421875 -0.8125 C 1.234375 -1.132812 1.140625 -1.53125 1.140625 -2 C 1.140625 -2.28125 1.171875 -2.570312 1.234375 -2.875 L 2 -6.515625 L 0.765625 -6.515625 L 1.109375 -8.140625 L 2.34375 -8.140625 L 2.6875 -9.71875 L 4.796875 -10.046875 L 4.390625 -8.140625 L 6.703125 -8.140625 L 6.359375 -6.515625 Z M 4.046875 -6.515625 "/></g></g></g><g fill="#000000" fill-opacity="1"><g transform="translate(89.28658, 25.653258)"><g><path d="M 3.234375 0.15625 C 2.753906 0.15625 2.316406 0.046875 1.921875 -0.171875 C 1.523438 -0.398438 1.207031 -0.738281 0.96875 -1.1875 C 0.726562 -1.644531 0.609375 -2.207031 0.609375 -2.875 C 0.609375 -3.300781 0.664062 -3.769531 0.78125 -4.28125 C 1.050781 -5.59375 1.539062 -6.585938 2.25 -7.265625 C 2.96875 -7.941406 3.851562 -8.28125 4.90625 -8.28125 C 5.425781 -8.28125 5.867188 -8.191406 6.234375 -8.015625 C 6.597656 -7.835938 6.867188 -7.566406 7.046875 -7.203125 L 7.203125 -7.25 L 7.390625 -8.140625 L 9.4375 -8.140625 L 7.703125 0 L 5.671875 0 L 5.890625 -1.046875 L 5.734375 -1.078125 C 5.421875 -0.691406 5.0625 -0.390625 4.65625 -0.171875 C 4.257812 0.046875 3.785156 0.15625 3.234375 0.15625 Z M 4.15625 -1.578125 C 4.71875 -1.578125 5.207031 -1.773438 5.625 -2.171875 C 6.050781 -2.566406 6.347656 -3.144531 6.515625 -3.90625 C 6.585938 -4.269531 6.625 -4.59375 6.625 -4.875 C 6.625 -5.425781 6.492188 -5.84375 6.234375 -6.125 C 5.984375 -6.40625 5.640625 -6.546875 5.203125 -6.546875 C 4.609375 -6.546875 4.109375 -6.351562 3.703125 -5.96875 C 3.304688 -5.582031 3.023438 -4.984375 2.859375 -4.171875 C 2.773438 -3.816406 2.734375 -3.5 2.734375 -3.21875 C 2.734375 -2.675781 2.859375 -2.265625 3.109375 -1.984375 C 3.359375 -1.710938 3.707031 -1.578125 4.15625 -1.578125 Z M 4.15625 -1.578125 "/></g></g></g><g fill="#000000" fill-opacity="1"><g transform="translate(99.025657, 25.653258)"><g><path d="M 0.3125 0 L 2.734375 -11.390625 L 4.765625 -11.390625 L 3.859375 -7.0625 L 4 -7.03125 C 4.644531 -7.863281 5.515625 -8.28125 6.609375 -8.28125 C 7.304688 -8.28125 7.847656 -8.078125 8.234375 -7.671875 C 8.617188 -7.273438 8.8125 -6.726562 8.8125 -6.03125 C 8.8125 -5.738281 8.773438 -5.421875 8.703125 -5.078125 L 7.609375 0 L 5.578125 0 L 6.625 -4.96875 C 6.664062 -5.164062 6.6875 -5.335938 6.6875 -5.484375 C 6.6875 -5.835938 6.585938 -6.101562 6.390625 -6.28125 C 6.191406 -6.46875 5.898438 -6.5625 5.515625 -6.5625 C 4.953125 -6.5625 4.472656 -6.375 4.078125 -6 C 3.691406 -5.625 3.414062 -5.023438 3.25 -4.203125 L 2.34375 0 Z M 0.3125 0 "/></g></g></g><g clip-path="url(#86ff107ae8)"><g clip-path="url(#9d509cf9d6)"><path fill="#231f20" d="M 6.992188 19.671875 L 43.386719 19.671875 L 43.386719 32.542969 L 6.992188 32.542969 Z M 6.992188 19.671875 " fill-opacity="1" fill-rule="nonzero"/></g></g></svg>